<?xml version="1.0" encoding="UTF-8" standalone="no"?>
<svg xmlns="http://www.w3.org/2000/svg" width="900" height="500" viewBox="0 0 900 500">
  <defs>
    <style type="text/css"><![CDATA[
      .box{fill:#ffffff;stroke:#000000;stroke-width:2}
      .line{stroke:#000000;stroke-width:2;fill:none}
      .arrow{stroke:#000000;stroke-width:2;fill:#000000}
      .label{font-family:Arial, Helvetica, sans-serif;font-size:16px;fill:#000000}
      .num{font-family:Arial, Helvetica, sans-serif;font-size:16px;font-weight:bold;fill:#000000}
      .title{font-family:Arial, Helvetica, sans-serif;font-size:18px;font-weight:bold;fill:#000000}
    ]]></style>
  </defs>
  <text x="20" y="30" class="title">Fig. 1 — Two-node beat generation and two-way handshake</text>

  <!-- Node A (100) -->
  <rect x="60" y="80" width="200" height="110" class="box"/>
  <text x="70" y="100" class="label">Node A</text>
  <text x="240" y="95" class="num">(100)</text>
  <rect x="80" y="120" width="160" height="50" class="box"/>
  <text x="90" y="150" class="label">TX f1</text>
  <text x="230" y="150" class="num">(110)</text>

  <!-- Node B (130) -->
  <rect x="640" y="80" width="200" height="110" class="box"/>
  <text x="650" y="100" class="label">Node B</text>
  <text x="840" y="95" class="num">(130)</text>
  <rect x="660" y="120" width="160" height="50" class="box"/>
  <text x="670" y="150" class="label">TX f2 = f1 + Δf</text>
  <text x="825" y="150" class="num">(140)</text>

  <!-- Wireless channel and delay (120) -->
  <line x1="260" y1="145" x2="640" y2="145" class="line" stroke-dasharray="8,5"/>
  <polygon points="640,145 630,140 630,150" class="arrow"/>
  <text x="410" y="135" class="label">Wireless link, delay τ</text>
  <text x="560" y="135" class="num">(120)</text>

  <!-- Beat detection / mixing (150) at both nodes -->
  <rect x="60" y="240" width="200" height="60" class="box"/>
  <text x="70" y="275" class="label">Beat detector @ Δf</text>
  <text x="250" y="275" class="num">(150)</text>

  <rect x="640" y="240" width="200" height="60" class="box"/>
  <text x="650" y="275" class="label">Beat detector @ Δf</text>
  <text x="830" y="275" class="num">(150)</text>

  <!-- Phase extraction (160) -->
  <rect x="60" y="330" width="200" height="60" class="box"/>
  <text x="70" y="365" class="label">Phase extraction</text>
  <text x="250" y="365" class="num">(160)</text>

  <rect x="640" y="330" width="200" height="60" class="box"/>
  <text x="650" y="365" class="label">Phase extraction</text>
  <text x="830" y="365" class="num">(160)</text>

  <!-- Measurements (170) and Resolver (180) -->
  <rect x="330" y="320" width="240" height="50" class="box"/>
  <text x="340" y="350" class="label">Measurements: τ̂_AB, Δf̂_AB; τ̂_BA, Δf̂_BA</text>
  <text x="565" y="315" class="num">(170)</text>

  <rect x="330" y="390" width="240" height="60" class="box"/>
  <text x="340" y="420" class="label">Two-way resolver</text>
  <text x="340" y="440" class="label">τ_geo = 0.5(τ̂_AB+τ̂_BA), δt = 0.5(τ̂_AB−τ̂_BA)</text>
  <text x="565" y="385" class="num">(180)</text>

  <!-- Arrows to measurement box -->
  <line x1="260" y1="360" x2="330" y2="345" class="line"/>
  <polygon points="330,345 320,340 320,350" class="arrow"/>
  <line x1="640" y1="360" x2="570" y2="345" class="line"/>
  <polygon points="570,345 580,340 580,350" class="arrow"/>

</svg>

