<?xml version="1.0" encoding="UTF-8" standalone="no"?>
<svg xmlns="http://www.w3.org/2000/svg" width="900" height="420" viewBox="0 0 900 420">
  <defs>
    <style type="text/css"><![CDATA[
      .box{fill:#ffffff;stroke:#000000;stroke-width:2}
      .line{stroke:#000000;stroke-width:2;fill:none}
      .arrow{stroke:#000000;stroke-width:2;fill:#000000}
      .label{font-family:Arial, Helvetica, sans-serif;font-size:16px;fill:#000000}
      .num{font-family:Arial, Helvetica, sans-serif;font-size:16px;font-weight:bold;fill:#000000}
      .title{font-family:Arial, Helvetica, sans-serif;font-size:18px;font-weight:bold;fill:#000000}
    ]]></style>
  </defs>
  <text x="20" y="30" class="title">Fig. 2 — Phase extraction and closed-form estimator</text>

  <rect x="40" y="100" width="160" height="60" class="box"/>
  <text x="120" y="135" class="num">(200)</text>

  <rect x="230" y="100" width="160" height="60" class="box"/>
  <text x="310" y="135" class="num">(210)</text>

  <rect x="420" y="100" width="160" height="60" class="box"/>
  <text x="500" y="135" class="num">(220)</text>

  <rect x="610" y="100" width="160" height="60" class="box"/>
  <text x="690" y="135" class="num">(230)</text>

  <rect x="150" y="220" width="200" height="60" class="box"/>
  <text x="250" y="255" class="num">(240)</text>

  <rect x="390" y="220" width="160" height="60" class="box"/>
  <text x="470" y="255" class="num">(250)</text>

  <rect x="580" y="220" width="220" height="60" class="box"/>
  <text x="690" y="255" class="num">(260)</text>

  <rect x="310" y="320" width="220" height="60" class="box"/>
  <text x="420" y="355" class="num">(270)</text>

  <rect x="560" y="320" width="160" height="60" class="box"/>
  <text x="640" y="355" class="num">(280)</text>

  <!-- Arrows -->
  <line x1="200" y1="130" x2="230" y2="130" class="line"/>
  <polygon points="230,130 220,125 220,135" class="arrow"/>
  <line x1="390" y1="130" x2="420" y2="130" class="line"/>
  <polygon points="420,130 410,125 410,135" class="arrow"/>
  <line x1="580" y1="130" x2="610" y2="130" class="line"/>
  <polygon points="610,130 600,125 600,135" class="arrow"/>
  <line x1="540" y1="160" x2="250" y2="220" class="line"/>
  <polygon points="250,220 262,214 262,226" class="arrow"/>
  <line x1="350" y1="250" x2="390" y2="250" class="line"/>
  <polygon points="390,250 380,245 380,255" class="arrow"/>
  <line x1="550" y1="250" x2="580" y2="250" class="line"/>
  <polygon points="580,250 570,245 570,255" class="arrow"/>
  <line x1="690" y1="280" x2="420" y2="320" class="line"/>
  <polygon points="420,320 432,314 432,326" class="arrow"/>
  <line x1="530" y1="350" x2="560" y2="350" class="line"/>
  <polygon points="560,350 550,345 550,355" class="arrow"/>

</svg>

