<?xml version="1.0" encoding="utf-8" standalone="no"?>
<!DOCTYPE svg PUBLIC "-//W3C//DTD SVG 1.1//EN"
  "http://www.w3.org/Graphics/SVG/1.1/DTD/svg11.dtd">
<svg xmlns:xlink="http://www.w3.org/1999/xlink" width="710.898594pt" height="589.383437pt" viewBox="0 0 710.898594 589.383437" xmlns="http://www.w3.org/2000/svg" version="1.1">
 <metadata>
  <rdf:RDF xmlns:dc="http://purl.org/dc/elements/1.1/" xmlns:cc="http://creativecommons.org/ns#" xmlns:rdf="http://www.w3.org/1999/02/22-rdf-syntax-ns#">
   <cc:Work>
    <dc:type rdf:resource="http://purl.org/dc/dcmitype/StillImage"/>
    <dc:date>2025-09-23T12:58:47.471594</dc:date>
    <dc:format>image/svg+xml</dc:format>
    <dc:creator>
     <cc:Agent>
      <dc:title>Matplotlib v3.8.0, https://matplotlib.org/</dc:title>
     </cc:Agent>
    </dc:creator>
   </cc:Work>
  </rdf:RDF>
 </metadata>
 <defs>
  <style type="text/css">*{stroke-linejoin: round; stroke-linecap: butt}</style>
 </defs>
 <g id="figure_1">
  <g id="patch_1">
   <path d="M 0 589.383437 
L 710.898594 589.383437 
L 710.898594 0 
L 0 0 
z
" style="fill: #ffffff"/>
  </g>
  <g id="axes_1">
   <g id="patch_2">
    <path d="M 63.694219 279.73375 
L 700.199219 279.73375 
L 700.199219 72.06 
L 63.694219 72.06 
z
" style="fill: #ffffff"/>
   </g>
   <g id="matplotlib.axis_1">
    <g id="xtick_1">
     <g id="line2d_1">
      <path d="M 63.694219 279.73375 
L 63.694219 72.06 
" clip-path="url(#p8750d10852)" style="fill: none; stroke: #b0b0b0; stroke-opacity: 0.3; stroke-width: 0.8; stroke-linecap: square"/>
     </g>
     <g id="line2d_2">
      <defs>
       <path id="m29bb89dfd2" d="M 0 0 
L 0 3.5 
" style="stroke: #000000; stroke-width: 0.8"/>
      </defs>
      <g>
       <use xlink:href="#m29bb89dfd2" x="63.694219" y="279.73375" style="stroke: #000000; stroke-width: 0.8"/>
      </g>
     </g>
     <g id="text_1">
      <!-- 0 -->
      <g transform="translate(60.194844 295.092031) scale(0.11 -0.11)">
       <defs>
        <path id="DejaVuSerif-30" d="M 2034 219 
Q 2513 219 2750 744 
Q 2988 1269 2988 2328 
Q 2988 3391 2750 3916 
Q 2513 4441 2034 4441 
Q 1556 4441 1318 3916 
Q 1081 3391 1081 2328 
Q 1081 1269 1318 744 
Q 1556 219 2034 219 
z
M 2034 -91 
Q 1275 -91 848 546 
Q 422 1184 422 2328 
Q 422 3475 848 4112 
Q 1275 4750 2034 4750 
Q 2797 4750 3222 4112 
Q 3647 3475 3647 2328 
Q 3647 1184 3222 546 
Q 2797 -91 2034 -91 
z
" transform="scale(0.015625)"/>
       </defs>
       <use xlink:href="#DejaVuSerif-30"/>
      </g>
     </g>
    </g>
    <g id="xtick_2">
     <g id="line2d_3">
      <path d="M 190.995219 279.73375 
L 190.995219 72.06 
" clip-path="url(#p8750d10852)" style="fill: none; stroke: #b0b0b0; stroke-opacity: 0.3; stroke-width: 0.8; stroke-linecap: square"/>
     </g>
     <g id="line2d_4">
      <g>
       <use xlink:href="#m29bb89dfd2" x="190.995219" y="279.73375" style="stroke: #000000; stroke-width: 0.8"/>
      </g>
     </g>
     <g id="text_2">
      <!-- 1 -->
      <g transform="translate(187.495844 295.092031) scale(0.11 -0.11)">
       <defs>
        <path id="DejaVuSerif-31" d="M 909 0 
L 909 331 
L 1722 331 
L 1722 4213 
L 781 3603 
L 781 4013 
L 1919 4750 
L 2350 4750 
L 2350 331 
L 3163 331 
L 3163 0 
L 909 0 
z
" transform="scale(0.015625)"/>
       </defs>
       <use xlink:href="#DejaVuSerif-31"/>
      </g>
     </g>
    </g>
    <g id="xtick_3">
     <g id="line2d_5">
      <path d="M 318.296219 279.73375 
L 318.296219 72.06 
" clip-path="url(#p8750d10852)" style="fill: none; stroke: #b0b0b0; stroke-opacity: 0.3; stroke-width: 0.8; stroke-linecap: square"/>
     </g>
     <g id="line2d_6">
      <g>
       <use xlink:href="#m29bb89dfd2" x="318.296219" y="279.73375" style="stroke: #000000; stroke-width: 0.8"/>
      </g>
     </g>
     <g id="text_3">
      <!-- 2 -->
      <g transform="translate(314.796844 295.092031) scale(0.11 -0.11)">
       <defs>
        <path id="DejaVuSerif-32" d="M 819 3553 
L 469 3553 
L 469 4384 
Q 803 4563 1142 4656 
Q 1481 4750 1806 4750 
Q 2534 4750 2956 4397 
Q 3378 4044 3378 3438 
Q 3378 2753 2422 1800 
Q 2347 1728 2309 1691 
L 1131 513 
L 3078 513 
L 3078 1088 
L 3444 1088 
L 3444 0 
L 434 0 
L 434 341 
L 1850 1753 
Q 2319 2222 2519 2614 
Q 2719 3006 2719 3438 
Q 2719 3909 2473 4175 
Q 2228 4441 1797 4441 
Q 1350 4441 1106 4219 
Q 863 3997 819 3553 
z
" transform="scale(0.015625)"/>
       </defs>
       <use xlink:href="#DejaVuSerif-32"/>
      </g>
     </g>
    </g>
    <g id="xtick_4">
     <g id="line2d_7">
      <path d="M 445.597219 279.73375 
L 445.597219 72.06 
" clip-path="url(#p8750d10852)" style="fill: none; stroke: #b0b0b0; stroke-opacity: 0.3; stroke-width: 0.8; stroke-linecap: square"/>
     </g>
     <g id="line2d_8">
      <g>
       <use xlink:href="#m29bb89dfd2" x="445.597219" y="279.73375" style="stroke: #000000; stroke-width: 0.8"/>
      </g>
     </g>
     <g id="text_4">
      <!-- 3 -->
      <g transform="translate(442.097844 295.092031) scale(0.11 -0.11)">
       <defs>
        <path id="DejaVuSerif-33" d="M 622 4469 
Q 988 4606 1323 4678 
Q 1659 4750 1953 4750 
Q 2638 4750 3022 4454 
Q 3406 4159 3406 3634 
Q 3406 3213 3140 2930 
Q 2875 2647 2388 2547 
Q 2963 2466 3280 2130 
Q 3597 1794 3597 1259 
Q 3597 606 3158 257 
Q 2719 -91 1894 -91 
Q 1528 -91 1179 -12 
Q 831 66 488 225 
L 488 1131 
L 838 1131 
Q 869 681 1141 450 
Q 1413 219 1906 219 
Q 2384 219 2661 495 
Q 2938 772 2938 1253 
Q 2938 1803 2653 2086 
Q 2369 2369 1819 2369 
L 1522 2369 
L 1522 2688 
L 1678 2688 
Q 2225 2688 2498 2914 
Q 2772 3141 2772 3597 
Q 2772 4006 2547 4223 
Q 2322 4441 1900 4441 
Q 1478 4441 1245 4241 
Q 1013 4041 972 3647 
L 622 3647 
L 622 4469 
z
" transform="scale(0.015625)"/>
       </defs>
       <use xlink:href="#DejaVuSerif-33"/>
      </g>
     </g>
    </g>
    <g id="xtick_5">
     <g id="line2d_9">
      <path d="M 572.898219 279.73375 
L 572.898219 72.06 
" clip-path="url(#p8750d10852)" style="fill: none; stroke: #b0b0b0; stroke-opacity: 0.3; stroke-width: 0.8; stroke-linecap: square"/>
     </g>
     <g id="line2d_10">
      <g>
       <use xlink:href="#m29bb89dfd2" x="572.898219" y="279.73375" style="stroke: #000000; stroke-width: 0.8"/>
      </g>
     </g>
     <g id="text_5">
      <!-- 4 -->
      <g transform="translate(569.398844 295.092031) scale(0.11 -0.11)">
       <defs>
        <path id="DejaVuSerif-34" d="M 2234 1581 
L 2234 4063 
L 641 1581 
L 2234 1581 
z
M 3609 0 
L 1484 0 
L 1484 331 
L 2234 331 
L 2234 1247 
L 197 1247 
L 197 1588 
L 2241 4750 
L 2859 4750 
L 2859 1581 
L 3750 1581 
L 3750 1247 
L 2859 1247 
L 2859 331 
L 3609 331 
L 3609 0 
z
" transform="scale(0.015625)"/>
       </defs>
       <use xlink:href="#DejaVuSerif-34"/>
      </g>
     </g>
    </g>
    <g id="xtick_6">
     <g id="line2d_11">
      <path d="M 700.199219 279.73375 
L 700.199219 72.06 
" clip-path="url(#p8750d10852)" style="fill: none; stroke: #b0b0b0; stroke-opacity: 0.3; stroke-width: 0.8; stroke-linecap: square"/>
     </g>
     <g id="line2d_12">
      <g>
       <use xlink:href="#m29bb89dfd2" x="700.199219" y="279.73375" style="stroke: #000000; stroke-width: 0.8"/>
      </g>
     </g>
     <g id="text_6">
      <!-- 5 -->
      <g transform="translate(696.699844 295.092031) scale(0.11 -0.11)">
       <defs>
        <path id="DejaVuSerif-35" d="M 3219 4666 
L 3219 4153 
L 1081 4153 
L 1081 2816 
Q 1244 2928 1461 2984 
Q 1678 3041 1947 3041 
Q 2703 3041 3140 2622 
Q 3578 2203 3578 1478 
Q 3578 738 3136 323 
Q 2694 -91 1894 -91 
Q 1572 -91 1234 -12 
Q 897 66 544 225 
L 544 1131 
L 897 1131 
Q 925 688 1179 453 
Q 1434 219 1894 219 
Q 2388 219 2653 544 
Q 2919 869 2919 1478 
Q 2919 2084 2655 2407 
Q 2391 2731 1894 2731 
Q 1613 2731 1398 2631 
Q 1184 2531 1019 2322 
L 750 2322 
L 750 4666 
L 3219 4666 
z
" transform="scale(0.015625)"/>
       </defs>
       <use xlink:href="#DejaVuSerif-35"/>
      </g>
     </g>
    </g>
    <g id="text_7">
     <!-- Time (μs) -->
     <g transform="translate(353.217969 310.497812) scale(0.12 -0.12)">
      <defs>
       <path id="DejaVuSerif-54" d="M 1222 0 
L 1222 331 
L 1819 331 
L 1819 4294 
L 447 4294 
L 447 3566 
L 63 3566 
L 63 4666 
L 4206 4666 
L 4206 3566 
L 3822 3566 
L 3822 4294 
L 2450 4294 
L 2450 331 
L 3047 331 
L 3047 0 
L 1222 0 
z
" transform="scale(0.015625)"/>
       <path id="DejaVuSerif-69" d="M 622 4353 
Q 622 4497 726 4603 
Q 831 4709 978 4709 
Q 1122 4709 1226 4603 
Q 1331 4497 1331 4353 
Q 1331 4206 1228 4103 
Q 1125 4000 978 4000 
Q 831 4000 726 4103 
Q 622 4206 622 4353 
z
M 1356 331 
L 1900 331 
L 1900 0 
L 231 0 
L 231 331 
L 781 331 
L 781 2988 
L 231 2988 
L 231 3322 
L 1356 3322 
L 1356 331 
z
" transform="scale(0.015625)"/>
       <path id="DejaVuSerif-6d" d="M 3316 2675 
Q 3481 3041 3739 3227 
Q 3997 3413 4341 3413 
Q 4863 3413 5119 3089 
Q 5375 2766 5375 2113 
L 5375 331 
L 5894 331 
L 5894 0 
L 4300 0 
L 4300 331 
L 4800 331 
L 4800 2047 
Q 4800 2556 4650 2772 
Q 4500 2988 4153 2988 
Q 3769 2988 3567 2697 
Q 3366 2406 3366 1850 
L 3366 331 
L 3866 331 
L 3866 0 
L 2291 0 
L 2291 331 
L 2791 331 
L 2791 2069 
Q 2791 2566 2641 2777 
Q 2491 2988 2144 2988 
Q 1759 2988 1557 2697 
Q 1356 2406 1356 1850 
L 1356 331 
L 1856 331 
L 1856 0 
L 263 0 
L 263 331 
L 781 331 
L 781 2994 
L 231 2994 
L 231 3322 
L 1356 3322 
L 1356 2731 
Q 1516 3063 1762 3238 
Q 2009 3413 2322 3413 
Q 2709 3413 2968 3220 
Q 3228 3028 3316 2675 
z
" transform="scale(0.015625)"/>
       <path id="DejaVuSerif-65" d="M 3469 1600 
L 991 1600 
L 991 1575 
Q 991 903 1244 561 
Q 1497 219 1991 219 
Q 2369 219 2611 417 
Q 2853 616 2950 1006 
L 3413 1006 
Q 3275 459 2904 184 
Q 2534 -91 1931 -91 
Q 1203 -91 761 389 
Q 319 869 319 1663 
Q 319 2450 753 2931 
Q 1188 3413 1894 3413 
Q 2647 3413 3050 2948 
Q 3453 2484 3469 1600 
z
M 2791 1931 
Q 2772 2513 2545 2808 
Q 2319 3103 1894 3103 
Q 1497 3103 1269 2806 
Q 1041 2509 991 1931 
L 2791 1931 
z
" transform="scale(0.015625)"/>
       <path id="DejaVuSerif-20" transform="scale(0.015625)"/>
       <path id="DejaVuSerif-28" d="M 2041 -997 
Q 1281 -656 893 83 
Q 506 822 506 1931 
Q 506 3044 893 3783 
Q 1281 4522 2041 4863 
L 2041 4556 
Q 1559 4225 1350 3623 
Q 1141 3022 1141 1931 
Q 1141 844 1350 242 
Q 1559 -359 2041 -691 
L 2041 -997 
z
" transform="scale(0.015625)"/>
       <path id="DejaVuSerif-3bc" d="M 2309 3322 
L 3384 3322 
L 3384 325 
L 3928 325 
L 3928 0 
L 2809 0 
L 2809 588 
Q 2647 256 2417 82 
Q 2188 -91 1906 -91 
Q 1728 -91 1581 -34 
Q 1434 22 1313 134 
L 1313 -1331 
L 738 -1331 
L 738 2988 
L 219 2988 
L 219 3322 
L 1313 3322 
L 1313 1388 
Q 1313 781 1463 556 
Q 1613 331 1991 331 
Q 2391 331 2600 625 
Q 2809 919 2809 1478 
L 2809 2988 
L 2309 2988 
L 2309 3322 
z
" transform="scale(0.015625)"/>
       <path id="DejaVuSerif-73" d="M 359 184 
L 359 959 
L 691 959 
Q 703 588 923 403 
Q 1144 219 1575 219 
Q 1963 219 2166 364 
Q 2369 509 2369 788 
Q 2369 1006 2220 1140 
Q 2072 1275 1594 1428 
L 1178 1569 
Q 750 1706 558 1912 
Q 366 2119 366 2438 
Q 366 2894 700 3153 
Q 1034 3413 1625 3413 
Q 1888 3413 2178 3344 
Q 2469 3275 2778 3144 
L 2778 2419 
L 2447 2419 
Q 2434 2741 2221 2922 
Q 2009 3103 1644 3103 
Q 1281 3103 1095 2975 
Q 909 2847 909 2591 
Q 909 2381 1050 2254 
Q 1191 2128 1613 1997 
L 2069 1856 
Q 2541 1709 2748 1489 
Q 2956 1269 2956 922 
Q 2956 450 2595 179 
Q 2234 -91 1600 -91 
Q 1278 -91 972 -22 
Q 666 47 359 184 
z
" transform="scale(0.015625)"/>
       <path id="DejaVuSerif-29" d="M 453 -997 
L 453 -691 
Q 934 -359 1145 242 
Q 1356 844 1356 1931 
Q 1356 3022 1145 3623 
Q 934 4225 453 4556 
L 453 4863 
Q 1216 4522 1603 3783 
Q 1991 3044 1991 1931 
Q 1991 822 1603 83 
Q 1216 -656 453 -997 
z
" transform="scale(0.015625)"/>
      </defs>
      <use xlink:href="#DejaVuSerif-54"/>
      <use xlink:href="#DejaVuSerif-69" x="66.699219"/>
      <use xlink:href="#DejaVuSerif-6d" x="98.681641"/>
      <use xlink:href="#DejaVuSerif-65" x="193.505859"/>
      <use xlink:href="#DejaVuSerif-20" x="252.685547"/>
      <use xlink:href="#DejaVuSerif-28" x="284.472656"/>
      <use xlink:href="#DejaVuSerif-3bc" x="323.486328"/>
      <use xlink:href="#DejaVuSerif-73" x="388.476562"/>
      <use xlink:href="#DejaVuSerif-29" x="439.794922"/>
     </g>
    </g>
   </g>
   <g id="matplotlib.axis_2">
    <g id="ytick_1">
     <g id="line2d_13">
      <path d="M 63.694219 270.29409 
L 700.199219 270.29409 
" clip-path="url(#p8750d10852)" style="fill: none; stroke: #b0b0b0; stroke-opacity: 0.3; stroke-width: 0.8; stroke-linecap: square"/>
     </g>
     <g id="line2d_14">
      <defs>
       <path id="m6d2a69024d" d="M 0 0 
L -3.5 0 
" style="stroke: #000000; stroke-width: 0.8"/>
      </defs>
      <g>
       <use xlink:href="#m6d2a69024d" x="63.694219" y="270.29409" style="stroke: #000000; stroke-width: 0.8"/>
      </g>
     </g>
     <g id="text_8">
      <!-- −1.00 -->
      <g transform="translate(22.984375 274.473231) scale(0.11 -0.11)">
       <defs>
        <path id="DejaVuSerif-2212" d="M 678 2259 
L 4684 2259 
L 4684 1753 
L 678 1753 
L 678 2259 
z
" transform="scale(0.015625)"/>
        <path id="DejaVuSerif-2e" d="M 603 325 
Q 603 500 722 622 
Q 841 744 1019 744 
Q 1191 744 1312 622 
Q 1434 500 1434 325 
Q 1434 153 1312 31 
Q 1191 -91 1019 -91 
Q 841 -91 722 29 
Q 603 150 603 325 
z
" transform="scale(0.015625)"/>
       </defs>
       <use xlink:href="#DejaVuSerif-2212"/>
       <use xlink:href="#DejaVuSerif-31" x="83.789062"/>
       <use xlink:href="#DejaVuSerif-2e" x="147.412109"/>
       <use xlink:href="#DejaVuSerif-30" x="179.199219"/>
       <use xlink:href="#DejaVuSerif-30" x="242.822266"/>
      </g>
     </g>
    </g>
    <g id="ytick_2">
     <g id="line2d_15">
      <path d="M 63.694219 246.694768 
L 700.199219 246.694768 
" clip-path="url(#p8750d10852)" style="fill: none; stroke: #b0b0b0; stroke-opacity: 0.3; stroke-width: 0.8; stroke-linecap: square"/>
     </g>
     <g id="line2d_16">
      <g>
       <use xlink:href="#m6d2a69024d" x="63.694219" y="246.694768" style="stroke: #000000; stroke-width: 0.8"/>
      </g>
     </g>
     <g id="text_9">
      <!-- −0.75 -->
      <g transform="translate(22.984375 250.873909) scale(0.11 -0.11)">
       <defs>
        <path id="DejaVuSerif-37" d="M 3609 4347 
L 1784 0 
L 1319 0 
L 3059 4153 
L 903 4153 
L 903 3578 
L 538 3578 
L 538 4666 
L 3609 4666 
L 3609 4347 
z
" transform="scale(0.015625)"/>
       </defs>
       <use xlink:href="#DejaVuSerif-2212"/>
       <use xlink:href="#DejaVuSerif-30" x="83.789062"/>
       <use xlink:href="#DejaVuSerif-2e" x="147.412109"/>
       <use xlink:href="#DejaVuSerif-37" x="179.199219"/>
       <use xlink:href="#DejaVuSerif-35" x="242.822266"/>
      </g>
     </g>
    </g>
    <g id="ytick_3">
     <g id="line2d_17">
      <path d="M 63.694219 223.095447 
L 700.199219 223.095447 
" clip-path="url(#p8750d10852)" style="fill: none; stroke: #b0b0b0; stroke-opacity: 0.3; stroke-width: 0.8; stroke-linecap: square"/>
     </g>
     <g id="line2d_18">
      <g>
       <use xlink:href="#m6d2a69024d" x="63.694219" y="223.095447" style="stroke: #000000; stroke-width: 0.8"/>
      </g>
     </g>
     <g id="text_10">
      <!-- −0.50 -->
      <g transform="translate(22.984375 227.274587) scale(0.11 -0.11)">
       <use xlink:href="#DejaVuSerif-2212"/>
       <use xlink:href="#DejaVuSerif-30" x="83.789062"/>
       <use xlink:href="#DejaVuSerif-2e" x="147.412109"/>
       <use xlink:href="#DejaVuSerif-35" x="179.199219"/>
       <use xlink:href="#DejaVuSerif-30" x="242.822266"/>
      </g>
     </g>
    </g>
    <g id="ytick_4">
     <g id="line2d_19">
      <path d="M 63.694219 199.496125 
L 700.199219 199.496125 
" clip-path="url(#p8750d10852)" style="fill: none; stroke: #b0b0b0; stroke-opacity: 0.3; stroke-width: 0.8; stroke-linecap: square"/>
     </g>
     <g id="line2d_20">
      <g>
       <use xlink:href="#m6d2a69024d" x="63.694219" y="199.496125" style="stroke: #000000; stroke-width: 0.8"/>
      </g>
     </g>
     <g id="text_11">
      <!-- −0.25 -->
      <g transform="translate(22.984375 203.675266) scale(0.11 -0.11)">
       <use xlink:href="#DejaVuSerif-2212"/>
       <use xlink:href="#DejaVuSerif-30" x="83.789062"/>
       <use xlink:href="#DejaVuSerif-2e" x="147.412109"/>
       <use xlink:href="#DejaVuSerif-32" x="179.199219"/>
       <use xlink:href="#DejaVuSerif-35" x="242.822266"/>
      </g>
     </g>
    </g>
    <g id="ytick_5">
     <g id="line2d_21">
      <path d="M 63.694219 175.896803 
L 700.199219 175.896803 
" clip-path="url(#p8750d10852)" style="fill: none; stroke: #b0b0b0; stroke-opacity: 0.3; stroke-width: 0.8; stroke-linecap: square"/>
     </g>
     <g id="line2d_22">
      <g>
       <use xlink:href="#m6d2a69024d" x="63.694219" y="175.896803" style="stroke: #000000; stroke-width: 0.8"/>
      </g>
     </g>
     <g id="text_12">
      <!-- 0.00 -->
      <g transform="translate(32.202031 180.075944) scale(0.11 -0.11)">
       <use xlink:href="#DejaVuSerif-30"/>
       <use xlink:href="#DejaVuSerif-2e" x="63.623047"/>
       <use xlink:href="#DejaVuSerif-30" x="95.410156"/>
       <use xlink:href="#DejaVuSerif-30" x="159.033203"/>
      </g>
     </g>
    </g>
    <g id="ytick_6">
     <g id="line2d_23">
      <path d="M 63.694219 152.297482 
L 700.199219 152.297482 
" clip-path="url(#p8750d10852)" style="fill: none; stroke: #b0b0b0; stroke-opacity: 0.3; stroke-width: 0.8; stroke-linecap: square"/>
     </g>
     <g id="line2d_24">
      <g>
       <use xlink:href="#m6d2a69024d" x="63.694219" y="152.297482" style="stroke: #000000; stroke-width: 0.8"/>
      </g>
     </g>
     <g id="text_13">
      <!-- 0.25 -->
      <g transform="translate(32.202031 156.476622) scale(0.11 -0.11)">
       <use xlink:href="#DejaVuSerif-30"/>
       <use xlink:href="#DejaVuSerif-2e" x="63.623047"/>
       <use xlink:href="#DejaVuSerif-32" x="95.410156"/>
       <use xlink:href="#DejaVuSerif-35" x="159.033203"/>
      </g>
     </g>
    </g>
    <g id="ytick_7">
     <g id="line2d_25">
      <path d="M 63.694219 128.69816 
L 700.199219 128.69816 
" clip-path="url(#p8750d10852)" style="fill: none; stroke: #b0b0b0; stroke-opacity: 0.3; stroke-width: 0.8; stroke-linecap: square"/>
     </g>
     <g id="line2d_26">
      <g>
       <use xlink:href="#m6d2a69024d" x="63.694219" y="128.69816" style="stroke: #000000; stroke-width: 0.8"/>
      </g>
     </g>
     <g id="text_14">
      <!-- 0.50 -->
      <g transform="translate(32.202031 132.877301) scale(0.11 -0.11)">
       <use xlink:href="#DejaVuSerif-30"/>
       <use xlink:href="#DejaVuSerif-2e" x="63.623047"/>
       <use xlink:href="#DejaVuSerif-35" x="95.410156"/>
       <use xlink:href="#DejaVuSerif-30" x="159.033203"/>
      </g>
     </g>
    </g>
    <g id="ytick_8">
     <g id="line2d_27">
      <path d="M 63.694219 105.098838 
L 700.199219 105.098838 
" clip-path="url(#p8750d10852)" style="fill: none; stroke: #b0b0b0; stroke-opacity: 0.3; stroke-width: 0.8; stroke-linecap: square"/>
     </g>
     <g id="line2d_28">
      <g>
       <use xlink:href="#m6d2a69024d" x="63.694219" y="105.098838" style="stroke: #000000; stroke-width: 0.8"/>
      </g>
     </g>
     <g id="text_15">
      <!-- 0.75 -->
      <g transform="translate(32.202031 109.277979) scale(0.11 -0.11)">
       <use xlink:href="#DejaVuSerif-30"/>
       <use xlink:href="#DejaVuSerif-2e" x="63.623047"/>
       <use xlink:href="#DejaVuSerif-37" x="95.410156"/>
       <use xlink:href="#DejaVuSerif-35" x="159.033203"/>
      </g>
     </g>
    </g>
    <g id="ytick_9">
     <g id="line2d_29">
      <path d="M 63.694219 81.499517 
L 700.199219 81.499517 
" clip-path="url(#p8750d10852)" style="fill: none; stroke: #b0b0b0; stroke-opacity: 0.3; stroke-width: 0.8; stroke-linecap: square"/>
     </g>
     <g id="line2d_30">
      <g>
       <use xlink:href="#m6d2a69024d" x="63.694219" y="81.499517" style="stroke: #000000; stroke-width: 0.8"/>
      </g>
     </g>
     <g id="text_16">
      <!-- 1.00 -->
      <g transform="translate(32.202031 85.678657) scale(0.11 -0.11)">
       <use xlink:href="#DejaVuSerif-31"/>
       <use xlink:href="#DejaVuSerif-2e" x="63.623047"/>
       <use xlink:href="#DejaVuSerif-30" x="95.410156"/>
       <use xlink:href="#DejaVuSerif-30" x="159.033203"/>
      </g>
     </g>
    </g>
    <g id="text_17">
     <!-- Beat Signal Amplitude -->
     <g transform="translate(16.318125 244.260312) rotate(-90) scale(0.12 -0.12)">
      <defs>
       <path id="DejaVuSerif-42" d="M 1581 331 
L 2516 331 
Q 3078 331 3337 575 
Q 3597 819 3597 1350 
Q 3597 1878 3339 2120 
Q 3081 2363 2516 2363 
L 1581 2363 
L 1581 331 
z
M 1581 2694 
L 2375 2694 
Q 2888 2694 3123 2891 
Q 3359 3088 3359 3513 
Q 3359 3941 3123 4136 
Q 2888 4331 2375 4331 
L 1581 4331 
L 1581 2694 
z
M 353 0 
L 353 331 
L 947 331 
L 947 4331 
L 353 4331 
L 353 4666 
L 2656 4666 
Q 3363 4666 3720 4377 
Q 4078 4088 4078 3513 
Q 4078 3097 3829 2850 
Q 3581 2603 3103 2547 
Q 3697 2472 4005 2167 
Q 4313 1863 4313 1350 
Q 4313 656 3875 328 
Q 3438 0 2509 0 
L 353 0 
z
" transform="scale(0.015625)"/>
       <path id="DejaVuSerif-61" d="M 2547 1044 
L 2547 1747 
L 1806 1747 
Q 1378 1747 1168 1562 
Q 959 1378 959 997 
Q 959 650 1171 447 
Q 1384 244 1747 244 
Q 2106 244 2326 466 
Q 2547 688 2547 1044 
z
M 3122 2075 
L 3122 331 
L 3634 331 
L 3634 0 
L 2547 0 
L 2547 359 
Q 2356 128 2106 18 
Q 1856 -91 1522 -91 
Q 969 -91 644 203 
Q 319 497 319 997 
Q 319 1513 691 1797 
Q 1063 2081 1741 2081 
L 2547 2081 
L 2547 2309 
Q 2547 2688 2317 2895 
Q 2088 3103 1672 3103 
Q 1328 3103 1125 2947 
Q 922 2791 872 2484 
L 575 2484 
L 575 3156 
Q 875 3284 1158 3348 
Q 1441 3413 1709 3413 
Q 2400 3413 2761 3070 
Q 3122 2728 3122 2075 
z
" transform="scale(0.015625)"/>
       <path id="DejaVuSerif-74" d="M 691 2988 
L 184 2988 
L 184 3322 
L 691 3322 
L 691 4353 
L 1269 4353 
L 1269 3322 
L 2350 3322 
L 2350 2988 
L 1269 2988 
L 1269 878 
Q 1269 456 1350 337 
Q 1431 219 1650 219 
Q 1875 219 1978 351 
Q 2081 484 2088 781 
L 2522 781 
Q 2497 328 2275 118 
Q 2053 -91 1600 -91 
Q 1103 -91 897 129 
Q 691 350 691 878 
L 691 2988 
z
" transform="scale(0.015625)"/>
       <path id="DejaVuSerif-53" d="M 594 225 
L 594 1288 
L 953 1284 
Q 969 753 1261 498 
Q 1553 244 2150 244 
Q 2706 244 2998 464 
Q 3291 684 3291 1106 
Q 3291 1444 3114 1625 
Q 2938 1806 2369 1978 
L 1753 2163 
Q 1084 2366 811 2669 
Q 538 2972 538 3500 
Q 538 4094 959 4422 
Q 1381 4750 2144 4750 
Q 2469 4750 2856 4679 
Q 3244 4609 3681 4475 
L 3681 3481 
L 3328 3481 
Q 3275 3975 2998 4195 
Q 2722 4416 2156 4416 
Q 1663 4416 1405 4214 
Q 1147 4013 1147 3628 
Q 1147 3294 1340 3103 
Q 1534 2913 2163 2725 
L 2741 2553 
Q 3375 2363 3645 2067 
Q 3916 1772 3916 1275 
Q 3916 597 3481 253 
Q 3047 -91 2188 -91 
Q 1803 -91 1404 -12 
Q 1006 66 594 225 
z
" transform="scale(0.015625)"/>
       <path id="DejaVuSerif-67" d="M 3359 2988 
L 3359 72 
Q 3359 -644 2965 -1033 
Q 2572 -1422 1844 -1422 
Q 1516 -1422 1216 -1362 
Q 916 -1303 641 -1184 
L 641 -488 
L 941 -488 
Q 997 -813 1206 -963 
Q 1416 -1113 1806 -1113 
Q 2313 -1113 2548 -827 
Q 2784 -541 2784 72 
L 2784 519 
Q 2616 206 2355 57 
Q 2094 -91 1709 -91 
Q 1097 -91 708 395 
Q 319 881 319 1663 
Q 319 2444 706 2928 
Q 1094 3413 1709 3413 
Q 2094 3413 2355 3264 
Q 2616 3116 2784 2803 
L 2784 3322 
L 3909 3322 
L 3909 2988 
L 3359 2988 
z
M 2784 1825 
Q 2784 2422 2554 2737 
Q 2325 3053 1888 3053 
Q 1444 3053 1217 2703 
Q 991 2353 991 1663 
Q 991 975 1217 622 
Q 1444 269 1888 269 
Q 2325 269 2554 583 
Q 2784 897 2784 1497 
L 2784 1825 
z
" transform="scale(0.015625)"/>
       <path id="DejaVuSerif-6e" d="M 263 0 
L 263 331 
L 781 331 
L 781 2988 
L 231 2988 
L 231 3322 
L 1356 3322 
L 1356 2731 
Q 1516 3069 1770 3241 
Q 2025 3413 2363 3413 
Q 2913 3413 3172 3097 
Q 3431 2781 3431 2113 
L 3431 331 
L 3944 331 
L 3944 0 
L 2356 0 
L 2356 331 
L 2853 331 
L 2853 1931 
Q 2853 2541 2703 2767 
Q 2553 2994 2175 2994 
Q 1775 2994 1565 2701 
Q 1356 2409 1356 1850 
L 1356 331 
L 1856 331 
L 1856 0 
L 263 0 
z
" transform="scale(0.015625)"/>
       <path id="DejaVuSerif-6c" d="M 1313 331 
L 1856 331 
L 1856 0 
L 184 0 
L 184 331 
L 738 331 
L 738 4531 
L 184 4531 
L 184 4863 
L 1313 4863 
L 1313 331 
z
" transform="scale(0.015625)"/>
       <path id="DejaVuSerif-41" d="M 1281 1691 
L 2994 1691 
L 2138 3909 
L 1281 1691 
z
M -38 0 
L -38 331 
L 372 331 
L 2034 4666 
L 2559 4666 
L 4225 331 
L 4684 331 
L 4684 0 
L 2988 0 
L 2988 331 
L 3506 331 
L 3116 1356 
L 1153 1356 
L 763 331 
L 1275 331 
L 1275 0 
L -38 0 
z
" transform="scale(0.015625)"/>
       <path id="DejaVuSerif-70" d="M 1313 1825 
L 1313 1497 
Q 1313 897 1542 583 
Q 1772 269 2209 269 
Q 2650 269 2876 622 
Q 3103 975 3103 1663 
Q 3103 2353 2876 2703 
Q 2650 3053 2209 3053 
Q 1772 3053 1542 2737 
Q 1313 2422 1313 1825 
z
M 738 2988 
L 184 2988 
L 184 3322 
L 1313 3322 
L 1313 2803 
Q 1481 3116 1742 3264 
Q 2003 3413 2388 3413 
Q 3000 3413 3387 2928 
Q 3775 2444 3775 1663 
Q 3775 881 3387 395 
Q 3000 -91 2388 -91 
Q 2003 -91 1742 57 
Q 1481 206 1313 519 
L 1313 -997 
L 1856 -997 
L 1856 -1331 
L 184 -1331 
L 184 -997 
L 738 -997 
L 738 2988 
z
" transform="scale(0.015625)"/>
       <path id="DejaVuSerif-75" d="M 2266 3322 
L 3341 3322 
L 3341 331 
L 3884 331 
L 3884 0 
L 2766 0 
L 2766 588 
Q 2606 256 2353 82 
Q 2100 -91 1766 -91 
Q 1213 -91 952 223 
Q 691 538 691 1209 
L 691 2988 
L 172 2988 
L 172 3322 
L 1269 3322 
L 1269 1388 
Q 1269 781 1417 556 
Q 1566 331 1947 331 
Q 2347 331 2556 625 
Q 2766 919 2766 1478 
L 2766 2988 
L 2266 2988 
L 2266 3322 
z
" transform="scale(0.015625)"/>
       <path id="DejaVuSerif-64" d="M 3359 331 
L 3909 331 
L 3909 0 
L 2784 0 
L 2784 519 
Q 2616 206 2355 57 
Q 2094 -91 1709 -91 
Q 1097 -91 708 395 
Q 319 881 319 1663 
Q 319 2444 706 2928 
Q 1094 3413 1709 3413 
Q 2094 3413 2355 3264 
Q 2616 3116 2784 2803 
L 2784 4531 
L 2241 4531 
L 2241 4863 
L 3359 4863 
L 3359 331 
z
M 2784 1497 
L 2784 1825 
Q 2784 2422 2554 2737 
Q 2325 3053 1888 3053 
Q 1444 3053 1217 2703 
Q 991 2353 991 1663 
Q 991 975 1217 622 
Q 1444 269 1888 269 
Q 2325 269 2554 583 
Q 2784 897 2784 1497 
z
" transform="scale(0.015625)"/>
      </defs>
      <use xlink:href="#DejaVuSerif-42"/>
      <use xlink:href="#DejaVuSerif-65" x="73.486328"/>
      <use xlink:href="#DejaVuSerif-61" x="132.666016"/>
      <use xlink:href="#DejaVuSerif-74" x="192.285156"/>
      <use xlink:href="#DejaVuSerif-20" x="232.470703"/>
      <use xlink:href="#DejaVuSerif-53" x="264.257812"/>
      <use xlink:href="#DejaVuSerif-69" x="332.763672"/>
      <use xlink:href="#DejaVuSerif-67" x="364.746094"/>
      <use xlink:href="#DejaVuSerif-6e" x="428.759766"/>
      <use xlink:href="#DejaVuSerif-61" x="493.164062"/>
      <use xlink:href="#DejaVuSerif-6c" x="552.783203"/>
      <use xlink:href="#DejaVuSerif-20" x="584.765625"/>
      <use xlink:href="#DejaVuSerif-41" x="616.552734"/>
      <use xlink:href="#DejaVuSerif-6d" x="688.769531"/>
      <use xlink:href="#DejaVuSerif-70" x="783.59375"/>
      <use xlink:href="#DejaVuSerif-6c" x="847.607422"/>
      <use xlink:href="#DejaVuSerif-69" x="879.589844"/>
      <use xlink:href="#DejaVuSerif-74" x="911.572266"/>
      <use xlink:href="#DejaVuSerif-75" x="951.757812"/>
      <use xlink:href="#DejaVuSerif-64" x="1016.162109"/>
      <use xlink:href="#DejaVuSerif-65" x="1080.175781"/>
     </g>
    </g>
   </g>
   <g id="line2d_31">
    <path d="M 63.694219 81.520178 
L 64.968503 81.582651 
L 66.242787 82.018084 
L 67.517072 82.824755 
L 68.791356 83.999474 
L 70.06564 85.537597 
L 71.339924 87.43304 
L 72.614209 89.678308 
L 73.888493 92.264523 
L 75.162777 95.181456 
L 76.437062 98.417575 
L 78.98563 105.794965 
L 81.534199 114.280114 
L 84.082767 123.738939 
L 86.631336 134.02197 
L 90.454189 150.633515 
L 95.551326 174.07027 
L 101.922747 203.352975 
L 105.7456 219.805977 
L 108.294169 229.942739 
L 110.842737 239.225461 
L 113.391306 247.507453 
L 115.939874 254.657844 
L 117.214159 257.772629 
L 118.488443 260.563641 
L 119.762727 263.019843 
L 121.037012 265.131521 
L 122.311296 266.890326 
L 123.58558 268.289301 
L 124.859864 269.322916 
L 126.134149 269.987082 
L 127.408433 270.279173 
L 128.682717 270.198034 
L 129.957002 269.743986 
L 131.231286 268.918824 
L 132.50557 267.725812 
L 133.779854 266.169668 
L 135.054139 264.256544 
L 136.328423 261.994006 
L 137.602707 259.391002 
L 138.876992 256.457824 
L 140.151276 253.206072 
L 142.699844 245.79949 
L 145.248413 237.288296 
L 147.796982 227.806985 
L 150.34555 217.505382 
L 154.168403 200.873941 
L 159.26554 177.42653 
L 165.636961 148.156748 
L 169.459814 131.725063 
L 172.008383 121.60775 
L 174.556951 112.348321 
L 177.10552 104.093094 
L 179.654089 96.972519 
L 180.928373 93.87364 
L 182.202657 91.099117 
L 183.476941 88.659923 
L 184.751226 86.565701 
L 186.02551 84.824735 
L 187.299794 83.443908 
L 188.574079 82.428681 
L 189.848363 81.783068 
L 191.122647 81.509624 
L 192.396931 81.609428 
L 193.671216 82.082086 
L 194.9455 82.92573 
L 196.219784 84.137023 
L 197.494069 85.711174 
L 198.768353 87.64196 
L 200.042637 89.921745 
L 201.316921 92.541514 
L 202.591206 95.490906 
L 205.139774 102.330653 
L 207.688343 110.332902 
L 210.236911 119.371202 
L 212.78548 129.302728 
L 216.608333 145.528256 
L 221.70547 168.733664 
L 229.351176 203.920469 
L 233.174029 220.330674 
L 235.722597 230.428437 
L 238.271166 239.664483 
L 240.819734 247.892863 
L 243.368303 254.983551 
L 244.642587 258.066493 
L 245.916871 260.824499 
L 247.191156 263.246663 
L 248.46544 265.323407 
L 249.739724 267.046518 
L 251.014009 268.409183 
L 252.288293 269.406012 
L 253.562577 270.033065 
L 254.836861 270.28786 
L 256.111146 270.169392 
L 257.38543 269.678127 
L 258.659714 268.81601 
L 259.933999 267.586449 
L 261.208283 265.994305 
L 262.482567 264.045877 
L 263.756851 261.748867 
L 265.031136 259.11236 
L 266.30542 256.146782 
L 268.853989 249.276575 
L 271.402557 241.246811 
L 273.951126 232.184376 
L 276.499694 222.232477 
L 280.322547 205.984128 
L 285.419684 182.763909 
L 293.06539 147.589805 
L 296.888243 131.201242 
L 299.436811 121.123129 
L 301.98538 111.910557 
L 304.533948 103.709106 
L 307.082517 96.648375 
L 308.356801 93.581401 
L 309.631086 90.839939 
L 310.90537 88.434829 
L 312.179654 86.375583 
L 313.453938 84.670344 
L 314.728223 83.325855 
L 316.002507 82.347433 
L 317.276791 81.738947 
L 318.551076 81.502803 
L 319.82536 81.639935 
L 321.099644 82.1498 
L 322.373928 83.030383 
L 323.648213 84.278201 
L 324.922497 85.888319 
L 326.196781 87.854372 
L 327.471066 90.168583 
L 328.74535 92.821802 
L 330.019634 95.803537 
L 332.568203 102.704136 
L 335.116771 110.761336 
L 337.66534 119.847816 
L 340.213908 129.81999 
L 344.036761 146.091 
L 349.133898 169.325799 
L 356.779604 204.486855 
L 360.602457 220.853614 
L 363.151026 230.911978 
L 365.699594 240.100983 
L 368.248163 248.275425 
L 370.796731 255.30613 
L 372.071016 258.357106 
L 373.3453 261.081997 
L 374.619584 263.470028 
L 375.893868 265.511755 
L 377.168153 267.199105 
L 378.442437 268.525405 
L 379.716721 269.48541 
L 380.991006 270.075324 
L 382.26529 270.292814 
L 383.539574 270.137021 
L 384.813858 269.608559 
L 386.088143 268.70952 
L 387.362427 267.443458 
L 388.636711 265.815379 
L 389.910996 263.831723 
L 391.18528 261.500332 
L 392.459564 258.830427 
L 393.733848 255.832566 
L 396.282417 248.901643 
L 398.830986 240.817087 
L 401.379554 231.706652 
L 403.928123 221.714301 
L 407.750976 205.420792 
L 412.848113 182.171641 
L 420.493818 147.023982 
L 424.316671 130.679188 
L 426.86524 120.640674 
L 429.413808 111.475325 
L 431.962377 103.327973 
L 434.510945 96.327365 
L 435.78523 93.292417 
L 437.059514 90.584124 
L 438.333798 88.213196 
L 439.608083 86.189007 
L 440.882367 84.519563 
L 442.156651 83.211465 
L 443.430935 82.269886 
L 444.70522 81.69855 
L 445.979504 81.499716 
L 447.253788 81.67417 
L 448.528073 82.221222 
L 449.802357 83.138709 
L 451.076641 84.423003 
L 452.350925 86.069025 
L 453.62521 88.070266 
L 454.899494 90.418813 
L 456.173778 93.105377 
L 457.448063 96.119336 
L 459.996631 103.080514 
L 462.5452 111.192346 
L 465.093768 120.326646 
L 467.642337 130.339075 
L 471.46519 146.654922 
L 476.562327 169.918194 
L 484.208033 205.05211 
L 488.030885 221.374776 
L 490.579454 231.393342 
L 493.128023 240.534944 
L 495.676591 248.655124 
L 498.22516 255.625567 
L 499.499444 258.644457 
L 500.773728 261.336125 
L 502.048013 263.689928 
L 503.322297 265.696558 
L 504.596581 267.34808 
L 505.870865 268.637963 
L 507.14515 269.561105 
L 508.419434 270.113858 
L 509.693718 270.294034 
L 510.968003 270.100922 
L 512.242287 269.535284 
L 513.516571 268.599358 
L 514.790855 267.296845 
L 516.06514 265.632896 
L 517.339424 263.61409 
L 518.613708 261.248411 
L 519.887993 258.545214 
L 521.162277 255.515187 
L 523.710845 248.523823 
L 526.259414 240.384796 
L 528.807983 231.22672 
L 531.356551 221.194312 
L 535.179404 204.856288 
L 540.276541 181.579125 
L 547.922247 146.459301 
L 551.7451 130.158924 
L 554.293668 120.160405 
L 556.842237 111.042641 
L 559.390805 102.949712 
L 561.939374 96.009503 
L 563.213658 93.006702 
L 564.487942 90.331685 
L 565.762227 87.99503 
L 567.036511 86.005979 
L 568.310795 84.372396 
L 569.58508 83.100741 
L 570.859364 82.196043 
L 572.133648 81.66188 
L 573.407932 81.500363 
L 574.682217 81.712132 
L 575.956501 82.296349 
L 577.230785 83.250705 
L 578.50507 84.571424 
L 579.779354 86.253284 
L 581.053638 88.289635 
L 582.327922 90.672423 
L 583.602207 93.392227 
L 584.876491 96.43829 
L 587.42506 103.459772 
L 589.973628 111.625915 
L 592.522197 120.807675 
L 595.070765 130.859962 
L 598.893618 147.220002 
L 603.990755 170.510826 
L 611.636461 205.616211 
L 615.459314 221.894138 
L 618.007882 231.872511 
L 620.556451 240.966347 
L 623.10502 249.031945 
L 625.653588 255.941851 
L 626.927872 258.928534 
L 628.202157 261.586873 
L 629.476441 263.906356 
L 630.750725 265.877809 
L 632.02501 267.493437 
L 633.299294 268.746852 
L 634.573578 269.633096 
L 635.847862 270.148665 
L 637.122147 270.29152 
L 638.396431 270.061096 
L 639.670715 269.458305 
L 640.945 268.48553 
L 642.219284 267.146618 
L 643.493568 265.446863 
L 644.767852 263.392988 
L 646.042137 260.993114 
L 647.316421 258.256731 
L 648.590705 255.19466 
L 651.139274 248.14313 
L 653.687842 239.949953 
L 656.236411 230.744599 
L 658.78498 220.672532 
L 662.607832 204.290638 
L 667.70497 180.986384 
L 675.350675 145.895784 
L 679.173528 129.640468 
L 681.722097 119.682341 
L 684.270665 110.612522 
L 686.819234 102.574336 
L 689.367802 95.694801 
L 690.642087 92.724265 
L 691.916371 90.08263 
L 693.190655 87.780342 
L 694.464939 85.826507 
L 695.739224 84.228849 
L 697.013508 82.993688 
L 698.287792 82.125906 
L 699.562077 81.628937 
L 700.836361 81.504744 
L 702.110645 81.75382 
L 703.384929 82.37518 
L 704.659214 83.366365 
L 705.933498 84.723457 
L 707.207782 86.441089 
L 708.482067 88.512469 
L 709.756351 90.929405 
L 711.898594 95.778904 
L 711.898594 95.778904 
" clip-path="url(#p8750d10852)" style="fill: none; stroke: #0000ff; stroke-width: 1.5; stroke-linecap: square"/>
   </g>
   <g id="patch_3">
    <path d="M 63.694219 279.73375 
L 63.694219 72.06 
" style="fill: none; stroke: #000000; stroke-width: 1.5; stroke-linejoin: miter; stroke-linecap: square"/>
   </g>
   <g id="patch_4">
    <path d="M 700.199219 279.73375 
L 700.199219 72.06 
" style="fill: none; stroke: #000000; stroke-width: 1.5; stroke-linejoin: miter; stroke-linecap: square"/>
   </g>
   <g id="patch_5">
    <path d="M 63.694219 279.73375 
L 700.199219 279.73375 
" style="fill: none; stroke: #000000; stroke-width: 1.5; stroke-linejoin: miter; stroke-linecap: square"/>
   </g>
   <g id="patch_6">
    <path d="M 63.694219 72.06 
L 700.199219 72.06 
" style="fill: none; stroke: #000000; stroke-width: 1.5; stroke-linejoin: miter; stroke-linecap: square"/>
   </g>
   <g id="text_18">
    <!-- Beat Signal at Δf = 1 MHz -->
    <g transform="translate(286.362188 66.06) scale(0.13 -0.13)">
     <defs>
      <path id="DejaVuSerif-Bold-42" d="M 300 0 
L 300 378 
L 897 378 
L 897 4288 
L 300 4288 
L 300 4666 
L 3066 4666 
Q 3919 4666 4347 4378 
Q 4775 4091 4775 3513 
Q 4775 3097 4479 2853 
Q 4184 2609 3603 2547 
Q 4306 2481 4681 2172 
Q 5056 1863 5056 1350 
Q 5056 656 4532 328 
Q 4009 0 2894 0 
L 300 0 
z
M 2100 2719 
L 2509 2719 
Q 3047 2719 3306 2914 
Q 3566 3109 3566 3513 
Q 3566 3919 3314 4103 
Q 3063 4288 2509 4288 
L 2100 4288 
L 2100 2719 
z
M 2100 378 
L 2547 378 
Q 3144 378 3431 615 
Q 3719 853 3719 1350 
Q 3719 1850 3428 2097 
Q 3138 2344 2547 2344 
L 2100 2344 
L 2100 378 
z
" transform="scale(0.015625)"/>
      <path id="DejaVuSerif-Bold-65" d="M 2566 1875 
Q 2566 2531 2444 2795 
Q 2322 3059 2028 3059 
Q 1744 3059 1620 2800 
Q 1497 2541 1497 1931 
L 1497 1875 
L 2566 1875 
z
M 3781 1503 
L 1497 1503 
L 1497 1478 
Q 1497 834 1690 548 
Q 1884 263 2316 263 
Q 2675 263 2897 453 
Q 3119 644 3181 1006 
L 3700 1006 
Q 3566 441 3166 175 
Q 2766 -91 2047 -91 
Q 1184 -91 723 364 
Q 263 819 263 1663 
Q 263 2488 734 2950 
Q 1206 3413 2047 3413 
Q 2872 3413 3312 2927 
Q 3753 2441 3781 1503 
z
" transform="scale(0.015625)"/>
      <path id="DejaVuSerif-Bold-61" d="M 3525 2041 
L 3525 378 
L 4000 378 
L 4000 0 
L 2419 0 
L 2419 422 
Q 2200 159 1931 34 
Q 1663 -91 1319 -91 
Q 809 -91 536 182 
Q 263 456 263 966 
Q 263 1525 655 1803 
Q 1047 2081 1838 2081 
L 2419 2081 
L 2419 2278 
Q 2419 2681 2228 2873 
Q 2038 3066 1638 3066 
Q 1306 3066 1126 2930 
Q 947 2794 872 2484 
L 519 2484 
L 519 3200 
Q 816 3306 1134 3359 
Q 1453 3413 1806 3413 
Q 2697 3413 3111 3081 
Q 3525 2750 3525 2041 
z
M 2419 1044 
L 2419 1709 
L 2003 1709 
Q 1694 1709 1528 1540 
Q 1363 1372 1363 1056 
Q 1363 741 1483 584 
Q 1603 428 1850 428 
Q 2106 428 2262 597 
Q 2419 766 2419 1044 
z
" transform="scale(0.015625)"/>
      <path id="DejaVuSerif-Bold-74" d="M 634 2944 
L 153 2944 
L 153 3322 
L 634 3322 
L 634 4353 
L 1741 4353 
L 1741 3322 
L 2663 3322 
L 2663 2944 
L 1741 2944 
L 1741 909 
Q 1741 475 1809 369 
Q 1878 263 2059 263 
Q 2259 263 2356 397 
Q 2453 531 2459 813 
L 2925 813 
Q 2897 313 2651 111 
Q 2406 -91 1806 -91 
Q 1122 -91 878 123 
Q 634 338 634 909 
L 634 2944 
z
" transform="scale(0.015625)"/>
      <path id="DejaVuSerif-Bold-20" transform="scale(0.015625)"/>
      <path id="DejaVuSerif-Bold-53" d="M 494 225 
L 494 1331 
L 891 1331 
Q 981 806 1318 547 
Q 1656 288 2253 288 
Q 2738 288 2991 472 
Q 3244 656 3244 1013 
Q 3244 1294 3072 1450 
Q 2900 1606 2363 1741 
L 1663 1913 
Q 978 2088 700 2398 
Q 422 2709 422 3284 
Q 422 3978 883 4364 
Q 1344 4750 2175 4750 
Q 2584 4750 3026 4681 
Q 3469 4613 3944 4475 
L 3944 3444 
L 3547 3444 
Q 3456 3925 3150 4148 
Q 2844 4372 2278 4372 
Q 1816 4372 1580 4211 
Q 1344 4050 1344 3731 
Q 1344 3441 1506 3289 
Q 1669 3138 2303 2975 
L 3003 2803 
Q 3653 2641 3945 2297 
Q 4238 1953 4238 1350 
Q 4238 644 3750 276 
Q 3263 -91 2316 -91 
Q 1859 -91 1409 -12 
Q 959 66 494 225 
z
" transform="scale(0.015625)"/>
      <path id="DejaVuSerif-Bold-69" d="M 588 4263 
Q 588 4516 763 4689 
Q 938 4863 1191 4863 
Q 1438 4863 1611 4689 
Q 1784 4516 1784 4263 
Q 1784 4016 1611 3842 
Q 1438 3669 1191 3669 
Q 938 3669 763 3841 
Q 588 4013 588 4263 
z
M 1797 378 
L 2272 378 
L 2272 0 
L 219 0 
L 219 378 
L 691 378 
L 691 2944 
L 219 2944 
L 219 3322 
L 1797 3322 
L 1797 378 
z
" transform="scale(0.015625)"/>
      <path id="DejaVuSerif-Bold-67" d="M 3853 2944 
L 3853 44 
Q 3853 -656 3354 -1039 
Q 2856 -1422 1947 -1422 
Q 1616 -1422 1275 -1370 
Q 934 -1319 575 -1216 
L 575 -422 
L 928 -422 
Q 975 -750 1192 -909 
Q 1409 -1069 1813 -1069 
Q 2325 -1069 2536 -823 
Q 2747 -578 2747 44 
L 2747 422 
Q 2606 163 2367 36 
Q 2128 -91 1778 -91 
Q 1072 -91 667 378 
Q 263 847 263 1663 
Q 263 2481 667 2947 
Q 1072 3413 1778 3413 
Q 2128 3413 2367 3286 
Q 2606 3159 2747 2900 
L 2747 3322 
L 4325 3322 
L 4325 2944 
L 3853 2944 
z
M 2747 1825 
Q 2747 2406 2597 2665 
Q 2447 2925 2119 2925 
Q 1775 2925 1636 2651 
Q 1497 2378 1497 1663 
Q 1497 947 1637 672 
Q 1778 397 2119 397 
Q 2447 397 2597 656 
Q 2747 916 2747 1497 
L 2747 1825 
z
" transform="scale(0.015625)"/>
      <path id="DejaVuSerif-Bold-6e" d="M 219 0 
L 219 378 
L 691 378 
L 691 2944 
L 219 2944 
L 219 3322 
L 1797 3322 
L 1797 2853 
Q 1997 3150 2253 3281 
Q 2509 3413 2900 3413 
Q 3459 3413 3745 3083 
Q 4031 2753 4031 2113 
L 4031 378 
L 4506 378 
L 4506 0 
L 2522 0 
L 2522 378 
L 2925 378 
L 2925 2144 
Q 2925 2566 2817 2730 
Q 2709 2894 2444 2894 
Q 2109 2894 1953 2648 
Q 1797 2403 1797 1869 
L 1797 378 
L 2203 378 
L 2203 0 
L 219 0 
z
" transform="scale(0.015625)"/>
      <path id="DejaVuSerif-Bold-6c" d="M 1797 378 
L 2272 378 
L 2272 0 
L 219 0 
L 219 378 
L 691 378 
L 691 4488 
L 219 4488 
L 219 4863 
L 1797 4863 
L 1797 378 
z
" transform="scale(0.015625)"/>
      <path id="DejaVuSerif-Bold-394" d="M 4744 0 
L 188 0 
L 2088 4666 
L 2834 4666 
L 4744 0 
z
M 781 378 
L 3309 378 
L 2053 3494 
L 781 378 
z
" transform="scale(0.015625)"/>
      <path id="DejaVuSerif-Bold-66" d="M 3097 4031 
L 2747 4031 
Q 2722 4275 2605 4394 
Q 2488 4513 2272 4513 
Q 2022 4513 1909 4333 
Q 1797 4153 1797 3750 
L 1797 3322 
L 2631 3322 
L 2631 2944 
L 1797 2944 
L 1797 378 
L 2438 378 
L 2438 0 
L 219 0 
L 219 378 
L 691 378 
L 691 2944 
L 197 2944 
L 197 3322 
L 691 3322 
L 691 3738 
Q 691 4291 1044 4577 
Q 1397 4863 2081 4863 
Q 2347 4863 2600 4833 
Q 2853 4803 3097 4744 
L 3097 4031 
z
" transform="scale(0.015625)"/>
      <path id="DejaVuSerif-Bold-3d" d="M 678 1650 
L 4684 1650 
L 4684 941 
L 678 941 
L 678 1650 
z
M 678 3072 
L 4684 3072 
L 4684 2363 
L 678 2363 
L 678 3072 
z
" transform="scale(0.015625)"/>
      <path id="DejaVuSerif-Bold-31" d="M 878 0 
L 878 378 
L 1753 378 
L 1753 4153 
L 781 3578 
L 781 4044 
L 1953 4750 
L 2938 4750 
L 2938 378 
L 3816 378 
L 3816 0 
L 878 0 
z
" transform="scale(0.015625)"/>
      <path id="DejaVuSerif-Bold-4d" d="M 269 0 
L 269 378 
L 863 378 
L 863 4288 
L 269 4288 
L 269 4666 
L 2194 4666 
L 3525 1672 
L 4863 4666 
L 6784 4666 
L 6784 4288 
L 6188 4288 
L 6188 378 
L 6784 378 
L 6784 0 
L 4384 0 
L 4384 378 
L 4978 378 
L 4978 3938 
L 3531 684 
L 2741 684 
L 1300 3938 
L 1300 378 
L 1894 378 
L 1894 0 
L 269 0 
z
" transform="scale(0.015625)"/>
      <path id="DejaVuSerif-Bold-48" d="M 300 0 
L 300 378 
L 897 378 
L 897 4288 
L 300 4288 
L 300 4666 
L 2700 4666 
L 2700 4288 
L 2100 4288 
L 2100 2719 
L 3956 2719 
L 3956 4288 
L 3359 4288 
L 3359 4666 
L 5759 4666 
L 5759 4288 
L 5159 4288 
L 5159 378 
L 5759 378 
L 5759 0 
L 3359 0 
L 3359 378 
L 3956 378 
L 3956 2291 
L 2100 2291 
L 2100 378 
L 2700 378 
L 2700 0 
L 300 0 
z
" transform="scale(0.015625)"/>
      <path id="DejaVuSerif-Bold-7a" d="M 225 0 
L 225 378 
L 2131 2956 
L 697 2956 
L 697 2388 
L 325 2388 
L 325 3322 
L 3419 3322 
L 3419 2950 
L 1509 372 
L 3047 372 
L 3047 972 
L 3419 972 
L 3419 0 
L 225 0 
z
" transform="scale(0.015625)"/>
     </defs>
     <use xlink:href="#DejaVuSerif-Bold-42"/>
     <use xlink:href="#DejaVuSerif-Bold-65" x="84.521484"/>
     <use xlink:href="#DejaVuSerif-Bold-61" x="148.144531"/>
     <use xlink:href="#DejaVuSerif-Bold-74" x="212.939453"/>
     <use xlink:href="#DejaVuSerif-Bold-20" x="259.130859"/>
     <use xlink:href="#DejaVuSerif-Bold-53" x="293.945312"/>
     <use xlink:href="#DejaVuSerif-Bold-69" x="366.162109"/>
     <use xlink:href="#DejaVuSerif-Bold-67" x="404.150391"/>
     <use xlink:href="#DejaVuSerif-Bold-6e" x="474.072266"/>
     <use xlink:href="#DejaVuSerif-Bold-61" x="546.777344"/>
     <use xlink:href="#DejaVuSerif-Bold-6c" x="611.572266"/>
     <use xlink:href="#DejaVuSerif-Bold-20" x="649.560547"/>
     <use xlink:href="#DejaVuSerif-Bold-61" x="684.375"/>
     <use xlink:href="#DejaVuSerif-Bold-74" x="749.169922"/>
     <use xlink:href="#DejaVuSerif-Bold-20" x="795.361328"/>
     <use xlink:href="#DejaVuSerif-Bold-394" x="830.175781"/>
     <use xlink:href="#DejaVuSerif-Bold-66" x="907.763672"/>
     <use xlink:href="#DejaVuSerif-Bold-20" x="950.78125"/>
     <use xlink:href="#DejaVuSerif-Bold-3d" x="985.595703"/>
     <use xlink:href="#DejaVuSerif-Bold-20" x="1069.384766"/>
     <use xlink:href="#DejaVuSerif-Bold-31" x="1104.199219"/>
     <use xlink:href="#DejaVuSerif-Bold-20" x="1173.779297"/>
     <use xlink:href="#DejaVuSerif-Bold-4d" x="1208.59375"/>
     <use xlink:href="#DejaVuSerif-Bold-48" x="1319.287109"/>
     <use xlink:href="#DejaVuSerif-Bold-7a" x="1413.769531"/>
    </g>
   </g>
  </g>
  <g id="axes_2">
   <g id="patch_7">
    <path d="M 63.694219 548.92375 
L 700.199219 548.92375 
L 700.199219 341.25 
L 63.694219 341.25 
z
" style="fill: #ffffff"/>
   </g>
   <g id="matplotlib.axis_3">
    <g id="xtick_7">
     <g id="line2d_32">
      <path d="M 92.626264 548.92375 
L 92.626264 341.25 
" clip-path="url(#p536fcffd69)" style="fill: none; stroke: #b0b0b0; stroke-opacity: 0.3; stroke-width: 0.8; stroke-linecap: square"/>
     </g>
     <g id="line2d_33">
      <g>
       <use xlink:href="#m29bb89dfd2" x="92.626264" y="548.92375" style="stroke: #000000; stroke-width: 0.8"/>
      </g>
     </g>
     <g id="text_19">
      <!-- 0 -->
      <g transform="translate(89.126889 564.282031) scale(0.11 -0.11)">
       <use xlink:href="#DejaVuSerif-30"/>
      </g>
     </g>
    </g>
    <g id="xtick_8">
     <g id="line2d_34">
      <path d="M 208.354446 548.92375 
L 208.354446 341.25 
" clip-path="url(#p536fcffd69)" style="fill: none; stroke: #b0b0b0; stroke-opacity: 0.3; stroke-width: 0.8; stroke-linecap: square"/>
     </g>
     <g id="line2d_35">
      <g>
       <use xlink:href="#m29bb89dfd2" x="208.354446" y="548.92375" style="stroke: #000000; stroke-width: 0.8"/>
      </g>
     </g>
     <g id="text_20">
      <!-- 2 -->
      <g transform="translate(204.855071 564.282031) scale(0.11 -0.11)">
       <use xlink:href="#DejaVuSerif-32"/>
      </g>
     </g>
    </g>
    <g id="xtick_9">
     <g id="line2d_36">
      <path d="M 324.082628 548.92375 
L 324.082628 341.25 
" clip-path="url(#p536fcffd69)" style="fill: none; stroke: #b0b0b0; stroke-opacity: 0.3; stroke-width: 0.8; stroke-linecap: square"/>
     </g>
     <g id="line2d_37">
      <g>
       <use xlink:href="#m29bb89dfd2" x="324.082628" y="548.92375" style="stroke: #000000; stroke-width: 0.8"/>
      </g>
     </g>
     <g id="text_21">
      <!-- 4 -->
      <g transform="translate(320.583253 564.282031) scale(0.11 -0.11)">
       <use xlink:href="#DejaVuSerif-34"/>
      </g>
     </g>
    </g>
    <g id="xtick_10">
     <g id="line2d_38">
      <path d="M 439.81081 548.92375 
L 439.81081 341.25 
" clip-path="url(#p536fcffd69)" style="fill: none; stroke: #b0b0b0; stroke-opacity: 0.3; stroke-width: 0.8; stroke-linecap: square"/>
     </g>
     <g id="line2d_39">
      <g>
       <use xlink:href="#m29bb89dfd2" x="439.81081" y="548.92375" style="stroke: #000000; stroke-width: 0.8"/>
      </g>
     </g>
     <g id="text_22">
      <!-- 6 -->
      <g transform="translate(436.311435 564.282031) scale(0.11 -0.11)">
       <defs>
        <path id="DejaVuSerif-36" d="M 2094 219 
Q 2534 219 2771 542 
Q 3009 866 3009 1472 
Q 3009 2078 2771 2401 
Q 2534 2725 2094 2725 
Q 1647 2725 1412 2412 
Q 1178 2100 1178 1509 
Q 1178 888 1415 553 
Q 1653 219 2094 219 
z
M 1075 2569 
Q 1288 2803 1556 2918 
Q 1825 3034 2163 3034 
Q 2859 3034 3264 2615 
Q 3669 2197 3669 1472 
Q 3669 763 3233 336 
Q 2797 -91 2069 -91 
Q 1278 -91 853 498 
Q 428 1088 428 2181 
Q 428 3406 931 4078 
Q 1434 4750 2350 4750 
Q 2597 4750 2869 4703 
Q 3141 4656 3425 4563 
L 3425 3794 
L 3072 3794 
Q 3034 4109 2831 4275 
Q 2628 4441 2284 4441 
Q 1678 4441 1381 3981 
Q 1084 3522 1075 2569 
z
" transform="scale(0.015625)"/>
       </defs>
       <use xlink:href="#DejaVuSerif-36"/>
      </g>
     </g>
    </g>
    <g id="xtick_11">
     <g id="line2d_40">
      <path d="M 555.538991 548.92375 
L 555.538991 341.25 
" clip-path="url(#p536fcffd69)" style="fill: none; stroke: #b0b0b0; stroke-opacity: 0.3; stroke-width: 0.8; stroke-linecap: square"/>
     </g>
     <g id="line2d_41">
      <g>
       <use xlink:href="#m29bb89dfd2" x="555.538991" y="548.92375" style="stroke: #000000; stroke-width: 0.8"/>
      </g>
     </g>
     <g id="text_23">
      <!-- 8 -->
      <g transform="translate(552.039616 564.282031) scale(0.11 -0.11)">
       <defs>
        <path id="DejaVuSerif-38" d="M 2981 1275 
Q 2981 1775 2732 2051 
Q 2484 2328 2034 2328 
Q 1584 2328 1336 2051 
Q 1088 1775 1088 1275 
Q 1088 772 1336 495 
Q 1584 219 2034 219 
Q 2484 219 2732 495 
Q 2981 772 2981 1275 
z
M 2853 3541 
Q 2853 3966 2637 4203 
Q 2422 4441 2034 4441 
Q 1650 4441 1433 4203 
Q 1216 3966 1216 3541 
Q 1216 3113 1433 2875 
Q 1650 2638 2034 2638 
Q 2422 2638 2637 2875 
Q 2853 3113 2853 3541 
z
M 2516 2484 
Q 3047 2413 3344 2092 
Q 3641 1772 3641 1275 
Q 3641 619 3225 264 
Q 2809 -91 2034 -91 
Q 1263 -91 845 264 
Q 428 619 428 1275 
Q 428 1772 725 2092 
Q 1022 2413 1556 2484 
Q 1084 2569 832 2842 
Q 581 3116 581 3541 
Q 581 4103 968 4426 
Q 1356 4750 2034 4750 
Q 2713 4750 3100 4426 
Q 3488 4103 3488 3541 
Q 3488 3116 3236 2842 
Q 2984 2569 2516 2484 
z
" transform="scale(0.015625)"/>
       </defs>
       <use xlink:href="#DejaVuSerif-38"/>
      </g>
     </g>
    </g>
    <g id="xtick_12">
     <g id="line2d_42">
      <path d="M 671.267173 548.92375 
L 671.267173 341.25 
" clip-path="url(#p536fcffd69)" style="fill: none; stroke: #b0b0b0; stroke-opacity: 0.3; stroke-width: 0.8; stroke-linecap: square"/>
     </g>
     <g id="line2d_43">
      <g>
       <use xlink:href="#m29bb89dfd2" x="671.267173" y="548.92375" style="stroke: #000000; stroke-width: 0.8"/>
      </g>
     </g>
     <g id="text_24">
      <!-- 10 -->
      <g transform="translate(664.268423 564.282031) scale(0.11 -0.11)">
       <use xlink:href="#DejaVuSerif-31"/>
       <use xlink:href="#DejaVuSerif-30" x="63.623047"/>
      </g>
     </g>
    </g>
    <g id="text_25">
     <!-- Time (μs) -->
     <g transform="translate(353.217969 579.687812) scale(0.12 -0.12)">
      <use xlink:href="#DejaVuSerif-54"/>
      <use xlink:href="#DejaVuSerif-69" x="66.699219"/>
      <use xlink:href="#DejaVuSerif-6d" x="98.681641"/>
      <use xlink:href="#DejaVuSerif-65" x="193.505859"/>
      <use xlink:href="#DejaVuSerif-20" x="252.685547"/>
      <use xlink:href="#DejaVuSerif-28" x="284.472656"/>
      <use xlink:href="#DejaVuSerif-3bc" x="323.486328"/>
      <use xlink:href="#DejaVuSerif-73" x="388.476562"/>
      <use xlink:href="#DejaVuSerif-29" x="439.794922"/>
     </g>
    </g>
   </g>
   <g id="matplotlib.axis_4">
    <g id="ytick_10">
     <g id="line2d_44">
      <path d="M 63.694219 539.421166 
L 700.199219 539.421166 
" clip-path="url(#p536fcffd69)" style="fill: none; stroke: #b0b0b0; stroke-opacity: 0.3; stroke-width: 0.8; stroke-linecap: square"/>
     </g>
     <g id="line2d_45">
      <g>
       <use xlink:href="#m6d2a69024d" x="63.694219" y="539.421166" style="stroke: #000000; stroke-width: 0.8"/>
      </g>
     </g>
     <g id="text_26">
      <!-- 0 -->
      <g transform="translate(49.695469 543.600306) scale(0.11 -0.11)">
       <use xlink:href="#DejaVuSerif-30"/>
      </g>
     </g>
    </g>
    <g id="ytick_11">
     <g id="line2d_46">
      <path d="M 63.694219 509.373617 
L 700.199219 509.373617 
" clip-path="url(#p536fcffd69)" style="fill: none; stroke: #b0b0b0; stroke-opacity: 0.3; stroke-width: 0.8; stroke-linecap: square"/>
     </g>
     <g id="line2d_47">
      <g>
       <use xlink:href="#m6d2a69024d" x="63.694219" y="509.373617" style="stroke: #000000; stroke-width: 0.8"/>
      </g>
     </g>
     <g id="text_27">
      <!-- 10 -->
      <g transform="translate(42.696719 513.552757) scale(0.11 -0.11)">
       <use xlink:href="#DejaVuSerif-31"/>
       <use xlink:href="#DejaVuSerif-30" x="63.623047"/>
      </g>
     </g>
    </g>
    <g id="ytick_12">
     <g id="line2d_48">
      <path d="M 63.694219 479.326068 
L 700.199219 479.326068 
" clip-path="url(#p536fcffd69)" style="fill: none; stroke: #b0b0b0; stroke-opacity: 0.3; stroke-width: 0.8; stroke-linecap: square"/>
     </g>
     <g id="line2d_49">
      <g>
       <use xlink:href="#m6d2a69024d" x="63.694219" y="479.326068" style="stroke: #000000; stroke-width: 0.8"/>
      </g>
     </g>
     <g id="text_28">
      <!-- 20 -->
      <g transform="translate(42.696719 483.505208) scale(0.11 -0.11)">
       <use xlink:href="#DejaVuSerif-32"/>
       <use xlink:href="#DejaVuSerif-30" x="63.623047"/>
      </g>
     </g>
    </g>
    <g id="ytick_13">
     <g id="line2d_50">
      <path d="M 63.694219 449.278519 
L 700.199219 449.278519 
" clip-path="url(#p536fcffd69)" style="fill: none; stroke: #b0b0b0; stroke-opacity: 0.3; stroke-width: 0.8; stroke-linecap: square"/>
     </g>
     <g id="line2d_51">
      <g>
       <use xlink:href="#m6d2a69024d" x="63.694219" y="449.278519" style="stroke: #000000; stroke-width: 0.8"/>
      </g>
     </g>
     <g id="text_29">
      <!-- 30 -->
      <g transform="translate(42.696719 453.457659) scale(0.11 -0.11)">
       <use xlink:href="#DejaVuSerif-33"/>
       <use xlink:href="#DejaVuSerif-30" x="63.623047"/>
      </g>
     </g>
    </g>
    <g id="ytick_14">
     <g id="line2d_52">
      <path d="M 63.694219 419.23097 
L 700.199219 419.23097 
" clip-path="url(#p536fcffd69)" style="fill: none; stroke: #b0b0b0; stroke-opacity: 0.3; stroke-width: 0.8; stroke-linecap: square"/>
     </g>
     <g id="line2d_53">
      <g>
       <use xlink:href="#m6d2a69024d" x="63.694219" y="419.23097" style="stroke: #000000; stroke-width: 0.8"/>
      </g>
     </g>
     <g id="text_30">
      <!-- 40 -->
      <g transform="translate(42.696719 423.41011) scale(0.11 -0.11)">
       <use xlink:href="#DejaVuSerif-34"/>
       <use xlink:href="#DejaVuSerif-30" x="63.623047"/>
      </g>
     </g>
    </g>
    <g id="ytick_15">
     <g id="line2d_54">
      <path d="M 63.694219 389.183421 
L 700.199219 389.183421 
" clip-path="url(#p536fcffd69)" style="fill: none; stroke: #b0b0b0; stroke-opacity: 0.3; stroke-width: 0.8; stroke-linecap: square"/>
     </g>
     <g id="line2d_55">
      <g>
       <use xlink:href="#m6d2a69024d" x="63.694219" y="389.183421" style="stroke: #000000; stroke-width: 0.8"/>
      </g>
     </g>
     <g id="text_31">
      <!-- 50 -->
      <g transform="translate(42.696719 393.362561) scale(0.11 -0.11)">
       <use xlink:href="#DejaVuSerif-35"/>
       <use xlink:href="#DejaVuSerif-30" x="63.623047"/>
      </g>
     </g>
    </g>
    <g id="ytick_16">
     <g id="line2d_56">
      <path d="M 63.694219 359.135872 
L 700.199219 359.135872 
" clip-path="url(#p536fcffd69)" style="fill: none; stroke: #b0b0b0; stroke-opacity: 0.3; stroke-width: 0.8; stroke-linecap: square"/>
     </g>
     <g id="line2d_57">
      <g>
       <use xlink:href="#m6d2a69024d" x="63.694219" y="359.135872" style="stroke: #000000; stroke-width: 0.8"/>
      </g>
     </g>
     <g id="text_32">
      <!-- 60 -->
      <g transform="translate(42.696719 363.315012) scale(0.11 -0.11)">
       <use xlink:href="#DejaVuSerif-36"/>
       <use xlink:href="#DejaVuSerif-30" x="63.623047"/>
      </g>
     </g>
    </g>
    <g id="text_33">
     <!-- Unwrapped Phase (radians) -->
     <g transform="translate(36.201094 529.993437) rotate(-90) scale(0.12 -0.12)">
      <defs>
       <path id="DejaVuSerif-55" d="M 897 4331 
L 300 4331 
L 300 4666 
L 2125 4666 
L 2125 4331 
L 1528 4331 
L 1528 1919 
Q 1528 1025 1820 672 
Q 2113 319 2828 319 
Q 3544 319 3836 672 
Q 4128 1025 4128 1919 
L 4128 4331 
L 3531 4331 
L 3531 4666 
L 5106 4666 
L 5106 4331 
L 4513 4331 
L 4513 1856 
Q 4513 791 4103 350 
Q 3694 -91 2713 -91 
Q 1731 -91 1314 353 
Q 897 797 897 1856 
L 897 4331 
z
" transform="scale(0.015625)"/>
       <path id="DejaVuSerif-77" d="M 3072 3322 
L 3922 728 
L 4672 2988 
L 4191 2988 
L 4191 3322 
L 5394 3322 
L 5394 2988 
L 5025 2988 
L 4038 0 
L 3559 0 
L 2741 2484 
L 1919 0 
L 1459 0 
L 475 2988 
L 103 2988 
L 103 3322 
L 1606 3322 
L 1606 2988 
L 1069 2988 
L 1813 728 
L 2669 3322 
L 3072 3322 
z
" transform="scale(0.015625)"/>
       <path id="DejaVuSerif-72" d="M 3059 3328 
L 3059 2497 
L 2728 2497 
Q 2713 2744 2591 2866 
Q 2469 2988 2234 2988 
Q 1809 2988 1582 2694 
Q 1356 2400 1356 1850 
L 1356 331 
L 2022 331 
L 2022 0 
L 263 0 
L 263 331 
L 781 331 
L 781 2994 
L 231 2994 
L 231 3322 
L 1356 3322 
L 1356 2731 
Q 1525 3078 1790 3245 
Q 2056 3413 2438 3413 
Q 2578 3413 2733 3391 
Q 2888 3369 3059 3328 
z
" transform="scale(0.015625)"/>
       <path id="DejaVuSerif-50" d="M 1581 2375 
L 2406 2375 
Q 2872 2375 3115 2626 
Q 3359 2878 3359 3353 
Q 3359 3831 3115 4081 
Q 2872 4331 2406 4331 
L 1581 4331 
L 1581 2375 
z
M 353 0 
L 353 331 
L 947 331 
L 947 4331 
L 353 4331 
L 353 4666 
L 2559 4666 
Q 3259 4666 3668 4311 
Q 4078 3956 4078 3353 
Q 4078 2753 3668 2397 
Q 3259 2041 2559 2041 
L 1581 2041 
L 1581 331 
L 2303 331 
L 2303 0 
L 353 0 
z
" transform="scale(0.015625)"/>
       <path id="DejaVuSerif-68" d="M 263 0 
L 263 331 
L 781 331 
L 781 4531 
L 231 4531 
L 231 4863 
L 1356 4863 
L 1356 2731 
Q 1516 3069 1770 3241 
Q 2025 3413 2363 3413 
Q 2913 3413 3172 3097 
Q 3431 2781 3431 2113 
L 3431 331 
L 3944 331 
L 3944 0 
L 2356 0 
L 2356 331 
L 2853 331 
L 2853 1931 
Q 2853 2541 2704 2764 
Q 2556 2988 2175 2988 
Q 1775 2988 1565 2697 
Q 1356 2406 1356 1850 
L 1356 331 
L 1856 331 
L 1856 0 
L 263 0 
z
" transform="scale(0.015625)"/>
      </defs>
      <use xlink:href="#DejaVuSerif-55"/>
      <use xlink:href="#DejaVuSerif-6e" x="84.277344"/>
      <use xlink:href="#DejaVuSerif-77" x="148.681641"/>
      <use xlink:href="#DejaVuSerif-72" x="234.277344"/>
      <use xlink:href="#DejaVuSerif-61" x="282.080078"/>
      <use xlink:href="#DejaVuSerif-70" x="341.699219"/>
      <use xlink:href="#DejaVuSerif-70" x="405.712891"/>
      <use xlink:href="#DejaVuSerif-65" x="469.726562"/>
      <use xlink:href="#DejaVuSerif-64" x="528.90625"/>
      <use xlink:href="#DejaVuSerif-20" x="592.919922"/>
      <use xlink:href="#DejaVuSerif-50" x="624.707031"/>
      <use xlink:href="#DejaVuSerif-68" x="691.992188"/>
      <use xlink:href="#DejaVuSerif-61" x="756.396484"/>
      <use xlink:href="#DejaVuSerif-73" x="816.015625"/>
      <use xlink:href="#DejaVuSerif-65" x="867.333984"/>
      <use xlink:href="#DejaVuSerif-20" x="926.513672"/>
      <use xlink:href="#DejaVuSerif-28" x="958.300781"/>
      <use xlink:href="#DejaVuSerif-72" x="997.314453"/>
      <use xlink:href="#DejaVuSerif-61" x="1045.117188"/>
      <use xlink:href="#DejaVuSerif-64" x="1104.736328"/>
      <use xlink:href="#DejaVuSerif-69" x="1168.75"/>
      <use xlink:href="#DejaVuSerif-61" x="1200.732422"/>
      <use xlink:href="#DejaVuSerif-6e" x="1260.351562"/>
      <use xlink:href="#DejaVuSerif-73" x="1324.755859"/>
      <use xlink:href="#DejaVuSerif-29" x="1376.074219"/>
     </g>
    </g>
   </g>
   <g id="line2d_58">
    <path d="M 92.626264 539.484034 
L 671.267173 350.689716 
L 671.267173 350.689716 
" clip-path="url(#p536fcffd69)" style="fill: none; stroke: #ff0000; stroke-width: 2; stroke-linecap: square"/>
   </g>
   <g id="line2d_59">
    <path d="M 92.626264 539.484034 
L 671.267173 350.689716 
L 671.267173 350.689716 
" clip-path="url(#p536fcffd69)" style="fill: none; stroke-dasharray: 3.7,1.6; stroke-dashoffset: 0; stroke: #000000; stroke-opacity: 0.7"/>
   </g>
   <g id="patch_8">
    <path d="M 63.694219 548.92375 
L 63.694219 341.25 
" style="fill: none; stroke: #000000; stroke-width: 1.5; stroke-linejoin: miter; stroke-linecap: square"/>
   </g>
   <g id="patch_9">
    <path d="M 700.199219 548.92375 
L 700.199219 341.25 
" style="fill: none; stroke: #000000; stroke-width: 1.5; stroke-linejoin: miter; stroke-linecap: square"/>
   </g>
   <g id="patch_10">
    <path d="M 63.694219 548.92375 
L 700.199219 548.92375 
" style="fill: none; stroke: #000000; stroke-width: 1.5; stroke-linejoin: miter; stroke-linecap: square"/>
   </g>
   <g id="patch_11">
    <path d="M 63.694219 341.25 
L 700.199219 341.25 
" style="fill: none; stroke: #000000; stroke-width: 1.5; stroke-linejoin: miter; stroke-linecap: square"/>
   </g>
   <g id="text_34">
    <g id="patch_12">
     <path d="M 237.286491 450.166562 
L 317.813054 450.166562 
Q 320.813054 450.166562 320.813054 447.166562 
L 320.813054 426.290625 
Q 320.813054 423.290625 317.813054 423.290625 
L 237.286491 423.290625 
Q 234.286491 423.290625 234.286491 426.290625 
L 234.286491 447.166562 
Q 234.286491 450.166562 237.286491 450.166562 
z
" style="fill: #ffffff; opacity: 0.8; stroke: #000000; stroke-linejoin: miter"/>
    </g>
    <!-- Slope = 2πΔf -->
    <g transform="translate(237.286491 433.889062) scale(0.1 -0.1)">
     <defs>
      <path id="DejaVuSerif-6f" d="M 1925 219 
Q 2388 219 2623 584 
Q 2859 950 2859 1663 
Q 2859 2375 2623 2739 
Q 2388 3103 1925 3103 
Q 1463 3103 1227 2739 
Q 991 2375 991 1663 
Q 991 950 1228 584 
Q 1466 219 1925 219 
z
M 1925 -91 
Q 1200 -91 759 389 
Q 319 869 319 1663 
Q 319 2456 758 2934 
Q 1197 3413 1925 3413 
Q 2653 3413 3092 2934 
Q 3531 2456 3531 1663 
Q 3531 869 3092 389 
Q 2653 -91 1925 -91 
z
" transform="scale(0.015625)"/>
      <path id="DejaVuSerif-3d" d="M 678 2894 
L 4684 2894 
L 4684 2394 
L 678 2394 
L 678 2894 
z
M 678 1619 
L 4684 1619 
L 4684 1119 
L 678 1119 
L 678 1619 
z
" transform="scale(0.015625)"/>
      <path id="DejaVuSerif-3c0" d="M 263 0 
L 263 331 
L 781 331 
L 781 2988 
L 231 2988 
L 231 3322 
L 3975 3322 
L 3975 2988 
L 3431 2988 
L 3431 331 
L 3944 331 
L 3944 0 
L 2356 0 
L 2356 331 
L 2853 331 
L 2853 2988 
L 1356 2988 
L 1356 331 
L 1856 331 
L 1856 0 
L 263 0 
z
" transform="scale(0.015625)"/>
      <path id="DejaVuSerif-394" d="M 4350 0 
L 244 0 
L 2034 4666 
L 2559 4666 
L 4350 0 
z
M 3506 331 
L 2138 3909 
L 763 331 
L 3506 331 
z
" transform="scale(0.015625)"/>
      <path id="DejaVuSerif-66" d="M 2753 4078 
L 2450 4078 
Q 2447 4313 2317 4434 
Q 2188 4556 1941 4556 
Q 1619 4556 1487 4379 
Q 1356 4203 1356 3750 
L 1356 3322 
L 2284 3322 
L 2284 2988 
L 1356 2988 
L 1356 331 
L 2094 331 
L 2094 0 
L 231 0 
L 231 331 
L 781 331 
L 781 2988 
L 231 2988 
L 231 3322 
L 781 3322 
L 781 3738 
Q 781 4294 1070 4578 
Q 1359 4863 1919 4863 
Q 2128 4863 2337 4825 
Q 2547 4788 2753 4709 
L 2753 4078 
z
" transform="scale(0.015625)"/>
     </defs>
     <use xlink:href="#DejaVuSerif-53"/>
     <use xlink:href="#DejaVuSerif-6c" x="68.505859"/>
     <use xlink:href="#DejaVuSerif-6f" x="100.488281"/>
     <use xlink:href="#DejaVuSerif-70" x="160.693359"/>
     <use xlink:href="#DejaVuSerif-65" x="224.707031"/>
     <use xlink:href="#DejaVuSerif-20" x="283.886719"/>
     <use xlink:href="#DejaVuSerif-3d" x="315.673828"/>
     <use xlink:href="#DejaVuSerif-20" x="399.462891"/>
     <use xlink:href="#DejaVuSerif-32" x="431.25"/>
     <use xlink:href="#DejaVuSerif-3c0" x="494.873047"/>
     <use xlink:href="#DejaVuSerif-394" x="560.595703"/>
     <use xlink:href="#DejaVuSerif-66" x="632.8125"/>
    </g>
    <!-- → Δf = 1.0 MHz -->
    <g transform="translate(237.286491 445.086875) scale(0.1 -0.1)">
     <defs>
      <path id="DejaVuSerif-2192" d="M 366 2322 
L 4391 2322 
L 3788 3375 
L 3822 3375 
L 5125 2084 
L 5125 2053 
L 3822 763 
L 3788 763 
L 4391 1816 
L 366 1816 
L 366 2322 
z
" transform="scale(0.015625)"/>
      <path id="DejaVuSerif-4d" d="M 353 0 
L 353 331 
L 947 331 
L 947 4331 
L 319 4331 
L 319 4666 
L 1678 4666 
L 3316 1344 
L 4953 4666 
L 6228 4666 
L 6228 4331 
L 5606 4331 
L 5606 331 
L 6203 331 
L 6203 0 
L 4378 0 
L 4378 331 
L 4972 331 
L 4972 3938 
L 3372 684 
L 2931 684 
L 1331 3938 
L 1331 331 
L 1925 331 
L 1925 0 
L 353 0 
z
" transform="scale(0.015625)"/>
      <path id="DejaVuSerif-48" d="M 353 0 
L 353 331 
L 947 331 
L 947 4331 
L 353 4331 
L 353 4666 
L 2175 4666 
L 2175 4331 
L 1581 4331 
L 1581 2719 
L 4000 2719 
L 4000 4331 
L 3406 4331 
L 3406 4666 
L 5228 4666 
L 5228 4331 
L 4634 4331 
L 4634 331 
L 5228 331 
L 5228 0 
L 3406 0 
L 3406 331 
L 4000 331 
L 4000 2338 
L 1581 2338 
L 1581 331 
L 2175 331 
L 2175 0 
L 353 0 
z
" transform="scale(0.015625)"/>
      <path id="DejaVuSerif-7a" d="M 256 0 
L 256 269 
L 2338 2988 
L 691 2988 
L 691 2413 
L 359 2413 
L 359 3322 
L 3078 3322 
L 3078 3053 
L 997 331 
L 2803 331 
L 2803 934 
L 3138 934 
L 3138 0 
L 256 0 
z
" transform="scale(0.015625)"/>
     </defs>
     <use xlink:href="#DejaVuSerif-2192"/>
     <use xlink:href="#DejaVuSerif-20" x="83.789062"/>
     <use xlink:href="#DejaVuSerif-394" x="115.576172"/>
     <use xlink:href="#DejaVuSerif-66" x="187.792969"/>
     <use xlink:href="#DejaVuSerif-20" x="224.804688"/>
     <use xlink:href="#DejaVuSerif-3d" x="256.591797"/>
     <use xlink:href="#DejaVuSerif-20" x="340.380859"/>
     <use xlink:href="#DejaVuSerif-31" x="372.167969"/>
     <use xlink:href="#DejaVuSerif-2e" x="435.791016"/>
     <use xlink:href="#DejaVuSerif-30" x="467.578125"/>
     <use xlink:href="#DejaVuSerif-20" x="531.201172"/>
     <use xlink:href="#DejaVuSerif-4d" x="562.988281"/>
     <use xlink:href="#DejaVuSerif-48" x="665.380859"/>
     <use xlink:href="#DejaVuSerif-7a" x="752.587891"/>
    </g>
   </g>
   <g id="text_35">
    <g id="patch_13">
     <path d="M 526.606946 450.166562 
L 621.160071 450.166562 
Q 624.160071 450.166562 624.160071 447.166562 
L 624.160071 426.290625 
Q 624.160071 423.290625 621.160071 423.290625 
L 526.606946 423.290625 
Q 523.606946 423.290625 523.606946 426.290625 
L 523.606946 447.166562 
Q 523.606946 450.166562 526.606946 450.166562 
z
" style="fill: #ffffff; opacity: 0.8; stroke: #000000; stroke-linejoin: miter"/>
    </g>
    <!-- Intercept = -2πΔfτ -->
    <g transform="translate(526.606946 433.889062) scale(0.1 -0.1)">
     <defs>
      <path id="DejaVuSerif-49" d="M 1581 331 
L 2175 331 
L 2175 0 
L 353 0 
L 353 331 
L 947 331 
L 947 4331 
L 353 4331 
L 353 4666 
L 2175 4666 
L 2175 4331 
L 1581 4331 
L 1581 331 
z
" transform="scale(0.015625)"/>
      <path id="DejaVuSerif-63" d="M 3291 997 
Q 3169 466 2822 187 
Q 2475 -91 1925 -91 
Q 1200 -91 759 389 
Q 319 869 319 1663 
Q 319 2459 759 2936 
Q 1200 3413 1925 3413 
Q 2241 3413 2553 3339 
Q 2866 3266 3181 3116 
L 3181 2266 
L 2847 2266 
Q 2781 2703 2561 2903 
Q 2341 3103 1931 3103 
Q 1466 3103 1228 2742 
Q 991 2381 991 1663 
Q 991 944 1227 581 
Q 1463 219 1931 219 
Q 2303 219 2525 412 
Q 2747 606 2828 997 
L 3291 997 
z
" transform="scale(0.015625)"/>
      <path id="DejaVuSerif-2d" d="M 281 1959 
L 1881 1959 
L 1881 1472 
L 281 1472 
L 281 1959 
z
" transform="scale(0.015625)"/>
      <path id="DejaVuSerif-3c4" d="M 2066 2988 
L 2066 906 
Q 2066 469 2297 363 
Q 2469 284 2859 519 
L 2859 141 
Q 2222 -225 1778 156 
Q 1488 406 1491 906 
L 1491 2988 
L 588 2988 
L 588 2488 
L 259 2488 
L 259 3322 
L 3297 3322 
L 3297 2988 
L 2066 2988 
z
" transform="scale(0.015625)"/>
     </defs>
     <use xlink:href="#DejaVuSerif-49"/>
     <use xlink:href="#DejaVuSerif-6e" x="39.501953"/>
     <use xlink:href="#DejaVuSerif-74" x="103.90625"/>
     <use xlink:href="#DejaVuSerif-65" x="144.091797"/>
     <use xlink:href="#DejaVuSerif-72" x="203.271484"/>
     <use xlink:href="#DejaVuSerif-63" x="251.074219"/>
     <use xlink:href="#DejaVuSerif-65" x="307.080078"/>
     <use xlink:href="#DejaVuSerif-70" x="366.259766"/>
     <use xlink:href="#DejaVuSerif-74" x="430.273438"/>
     <use xlink:href="#DejaVuSerif-20" x="470.458984"/>
     <use xlink:href="#DejaVuSerif-3d" x="502.246094"/>
     <use xlink:href="#DejaVuSerif-20" x="586.035156"/>
     <use xlink:href="#DejaVuSerif-2d" x="617.822266"/>
     <use xlink:href="#DejaVuSerif-32" x="651.611328"/>
     <use xlink:href="#DejaVuSerif-3c0" x="715.234375"/>
     <use xlink:href="#DejaVuSerif-394" x="780.957031"/>
     <use xlink:href="#DejaVuSerif-66" x="853.173828"/>
     <use xlink:href="#DejaVuSerif-3c4" x="890.185547"/>
    </g>
    <!-- → τ = 3.33 ns -->
    <g transform="translate(526.606946 445.086875) scale(0.1 -0.1)">
     <use xlink:href="#DejaVuSerif-2192"/>
     <use xlink:href="#DejaVuSerif-20" x="83.789062"/>
     <use xlink:href="#DejaVuSerif-3c4" x="115.576172"/>
     <use xlink:href="#DejaVuSerif-20" x="170.898438"/>
     <use xlink:href="#DejaVuSerif-3d" x="202.685547"/>
     <use xlink:href="#DejaVuSerif-20" x="286.474609"/>
     <use xlink:href="#DejaVuSerif-33" x="318.261719"/>
     <use xlink:href="#DejaVuSerif-2e" x="381.884766"/>
     <use xlink:href="#DejaVuSerif-33" x="413.671875"/>
     <use xlink:href="#DejaVuSerif-33" x="477.294922"/>
     <use xlink:href="#DejaVuSerif-20" x="540.917969"/>
     <use xlink:href="#DejaVuSerif-6e" x="572.705078"/>
     <use xlink:href="#DejaVuSerif-73" x="637.109375"/>
    </g>
   </g>
   <g id="text_36">
    <!-- Linear Phase Evolution Encodes Propagation Delay τ -->
    <g transform="translate(188.806328 335.25) scale(0.13 -0.13)">
     <defs>
      <path id="DejaVuSerif-Bold-4c" d="M 300 0 
L 300 378 
L 897 378 
L 897 4288 
L 300 4288 
L 300 4666 
L 2700 4666 
L 2700 4288 
L 2100 4288 
L 2100 428 
L 3938 428 
L 3938 1166 
L 4359 1166 
L 4359 0 
L 300 0 
z
" transform="scale(0.015625)"/>
      <path id="DejaVuSerif-Bold-72" d="M 3438 3359 
L 3438 2369 
L 3084 2369 
Q 3066 2634 2941 2764 
Q 2816 2894 2578 2894 
Q 2216 2894 2006 2575 
Q 1797 2256 1797 1691 
L 1797 378 
L 2400 378 
L 2400 0 
L 219 0 
L 219 378 
L 691 378 
L 691 2944 
L 184 2944 
L 184 3322 
L 1797 3322 
L 1797 2731 
Q 1959 3078 2226 3245 
Q 2494 3413 2881 3413 
Q 2978 3413 3117 3398 
Q 3256 3384 3438 3359 
z
" transform="scale(0.015625)"/>
      <path id="DejaVuSerif-Bold-50" d="M 300 0 
L 300 378 
L 897 378 
L 897 4288 
L 300 4288 
L 300 4666 
L 2956 4666 
Q 3734 4666 4193 4295 
Q 4653 3925 4653 3303 
Q 4653 2678 4192 2304 
Q 3731 1931 2956 1931 
L 2100 1931 
L 2100 378 
L 2853 378 
L 2853 0 
L 300 0 
z
M 2100 2309 
L 2450 2309 
Q 2856 2309 3098 2579 
Q 3341 2850 3341 3303 
Q 3341 3753 3100 4020 
Q 2859 4288 2450 4288 
L 2100 4288 
L 2100 2309 
z
" transform="scale(0.015625)"/>
      <path id="DejaVuSerif-Bold-68" d="M 219 0 
L 219 378 
L 691 378 
L 691 4488 
L 197 4488 
L 197 4863 
L 1797 4863 
L 1797 2853 
Q 1997 3150 2253 3281 
Q 2509 3413 2900 3413 
Q 3459 3413 3745 3083 
Q 4031 2753 4031 2113 
L 4031 378 
L 4506 378 
L 4506 0 
L 2522 0 
L 2522 378 
L 2925 378 
L 2925 2144 
Q 2925 2566 2817 2730 
Q 2709 2894 2444 2894 
Q 2109 2894 1953 2648 
Q 1797 2403 1797 1869 
L 1797 378 
L 2203 378 
L 2203 0 
L 219 0 
z
" transform="scale(0.015625)"/>
      <path id="DejaVuSerif-Bold-73" d="M 300 97 
L 300 1025 
L 653 1025 
Q 697 653 931 458 
Q 1166 263 1569 263 
Q 1906 263 2086 380 
Q 2266 497 2266 716 
Q 2266 916 2152 1025 
Q 2038 1134 1709 1216 
L 1253 1331 
Q 738 1459 506 1698 
Q 275 1938 275 2344 
Q 275 2884 650 3148 
Q 1025 3413 1806 3413 
Q 2100 3413 2433 3364 
Q 2766 3316 3169 3213 
L 3169 2375 
L 2816 2375 
Q 2788 2716 2573 2887 
Q 2359 3059 1959 3059 
Q 1622 3059 1448 2951 
Q 1275 2844 1275 2638 
Q 1275 2469 1375 2372 
Q 1475 2275 1734 2209 
L 2188 2094 
Q 2841 1928 3091 1684 
Q 3341 1441 3341 1006 
Q 3341 444 2939 176 
Q 2538 -91 1691 -91 
Q 1381 -91 1034 -44 
Q 688 3 300 97 
z
" transform="scale(0.015625)"/>
      <path id="DejaVuSerif-Bold-45" d="M 300 0 
L 300 378 
L 897 378 
L 897 4288 
L 300 4288 
L 300 4666 
L 4494 4666 
L 4494 3566 
L 4063 3566 
L 4063 4238 
L 2100 4238 
L 2100 2741 
L 3322 2741 
L 3322 3334 
L 3750 3334 
L 3750 1722 
L 3322 1722 
L 3322 2316 
L 2100 2316 
L 2100 428 
L 4122 428 
L 4122 1100 
L 4550 1100 
L 4550 0 
L 300 0 
z
" transform="scale(0.015625)"/>
      <path id="DejaVuSerif-Bold-76" d="M 1428 0 
L 250 2944 
L -116 2944 
L -116 3322 
L 1791 3322 
L 1791 2944 
L 1388 2944 
L 2228 844 
L 3066 2944 
L 2631 2944 
L 2631 3322 
L 3878 3322 
L 3878 2944 
L 3494 2944 
L 2316 0 
L 1428 0 
z
" transform="scale(0.015625)"/>
      <path id="DejaVuSerif-Bold-6f" d="M 2138 263 
Q 2488 263 2630 563 
Q 2772 863 2772 1663 
Q 2772 2463 2631 2761 
Q 2491 3059 2138 3059 
Q 1784 3059 1640 2757 
Q 1497 2456 1497 1663 
Q 1497 869 1640 566 
Q 1784 263 2138 263 
z
M 2138 -91 
Q 1259 -91 761 376 
Q 263 844 263 1663 
Q 263 2484 761 2948 
Q 1259 3413 2138 3413 
Q 3019 3413 3516 2948 
Q 4013 2484 4013 1663 
Q 4013 844 3514 376 
Q 3016 -91 2138 -91 
z
" transform="scale(0.015625)"/>
      <path id="DejaVuSerif-Bold-75" d="M 3963 3322 
L 3963 378 
L 4434 378 
L 4434 0 
L 2853 0 
L 2853 469 
Q 2656 172 2400 40 
Q 2144 -91 1753 -91 
Q 1194 -91 908 239 
Q 622 569 622 1209 
L 622 2944 
L 147 2944 
L 147 3322 
L 1728 3322 
L 1728 1381 
Q 1728 763 1831 595 
Q 1934 428 2209 428 
Q 2544 428 2698 675 
Q 2853 922 2853 1459 
L 2853 2944 
L 2450 2944 
L 2450 3322 
L 3963 3322 
z
" transform="scale(0.015625)"/>
      <path id="DejaVuSerif-Bold-63" d="M 3609 1038 
Q 3491 469 3123 189 
Q 2756 -91 2125 -91 
Q 1238 -91 750 368 
Q 263 828 263 1663 
Q 263 2488 744 2950 
Q 1225 3413 2081 3413 
Q 2428 3413 2781 3347 
Q 3134 3281 3500 3150 
L 3500 2228 
L 3150 2228 
Q 3100 2650 2903 2854 
Q 2706 3059 2350 3059 
Q 1888 3059 1692 2746 
Q 1497 2434 1497 1663 
Q 1497 909 1687 586 
Q 1878 263 2309 263 
Q 2644 263 2845 463 
Q 3047 663 3091 1038 
L 3609 1038 
z
" transform="scale(0.015625)"/>
      <path id="DejaVuSerif-Bold-64" d="M 2747 1497 
L 2747 1825 
Q 2747 2406 2597 2665 
Q 2447 2925 2119 2925 
Q 1775 2925 1636 2651 
Q 1497 2378 1497 1663 
Q 1497 947 1637 672 
Q 1778 397 2119 397 
Q 2447 397 2597 656 
Q 2747 916 2747 1497 
z
M 3853 378 
L 4325 378 
L 4325 0 
L 2747 0 
L 2747 422 
Q 2606 163 2367 36 
Q 2128 -91 1778 -91 
Q 1072 -91 667 378 
Q 263 847 263 1663 
Q 263 2481 667 2947 
Q 1072 3413 1778 3413 
Q 2128 3413 2367 3286 
Q 2606 3159 2747 2900 
L 2747 4488 
L 2272 4488 
L 2272 4863 
L 3853 4863 
L 3853 378 
z
" transform="scale(0.015625)"/>
      <path id="DejaVuSerif-Bold-70" d="M 1728 1825 
L 1728 1497 
Q 1728 916 1876 656 
Q 2025 397 2356 397 
Q 2697 397 2836 672 
Q 2975 947 2975 1663 
Q 2975 2378 2836 2651 
Q 2697 2925 2356 2925 
Q 2025 2925 1876 2665 
Q 1728 2406 1728 1825 
z
M 622 2944 
L 147 2944 
L 147 3322 
L 1728 3322 
L 1728 2900 
Q 1869 3159 2106 3286 
Q 2344 3413 2694 3413 
Q 3403 3413 3811 2945 
Q 4219 2478 4219 1663 
Q 4219 847 3811 378 
Q 3403 -91 2694 -91 
Q 2344 -91 2106 36 
Q 1869 163 1728 422 
L 1728 -953 
L 2241 -953 
L 2241 -1331 
L 147 -1331 
L 147 -953 
L 622 -953 
L 622 2944 
z
" transform="scale(0.015625)"/>
      <path id="DejaVuSerif-Bold-44" d="M 2100 378 
L 2534 378 
Q 3266 378 3605 847 
Q 3944 1316 3944 2338 
Q 3944 3353 3606 3820 
Q 3269 4288 2534 4288 
L 2100 4288 
L 2100 378 
z
M 300 0 
L 300 378 
L 897 378 
L 897 4288 
L 300 4288 
L 300 4666 
L 2694 4666 
Q 3950 4666 4615 4066 
Q 5281 3466 5281 2338 
Q 5281 1203 4614 601 
Q 3947 0 2694 0 
L 300 0 
z
" transform="scale(0.015625)"/>
      <path id="DejaVuSerif-Bold-79" d="M 1997 -750 
Q 1847 -1116 1634 -1269 
Q 1422 -1422 1063 -1422 
Q 909 -1422 721 -1387 
Q 534 -1353 313 -1288 
L 313 -594 
L 666 -597 
Q 675 -838 779 -953 
Q 884 -1069 1094 -1069 
Q 1297 -1069 1422 -958 
Q 1547 -847 1672 -538 
L 1722 -422 
L 275 2944 
L -84 2944 
L -84 3322 
L 1831 3322 
L 1831 2944 
L 1434 2944 
L 2278 978 
L 3066 2944 
L 2625 2944 
L 2625 3322 
L 3872 3322 
L 3872 2944 
L 3469 2944 
L 1997 -750 
z
" transform="scale(0.015625)"/>
      <path id="DejaVuSerif-Bold-3c4" d="M 597 2944 
L 597 2419 
L 219 2419 
L 219 3322 
L 3981 3322 
L 3981 2944 
L 2653 2944 
L 2653 1081 
Q 2653 378 3038 378 
Q 3388 378 3697 684 
L 3697 103 
Q 2722 -247 2106 141 
Q 1547 494 1547 1088 
L 1547 2944 
L 597 2944 
z
" transform="scale(0.015625)"/>
     </defs>
     <use xlink:href="#DejaVuSerif-Bold-4c"/>
     <use xlink:href="#DejaVuSerif-Bold-69" x="70.3125"/>
     <use xlink:href="#DejaVuSerif-Bold-6e" x="108.300781"/>
     <use xlink:href="#DejaVuSerif-Bold-65" x="181.005859"/>
     <use xlink:href="#DejaVuSerif-Bold-61" x="244.628906"/>
     <use xlink:href="#DejaVuSerif-Bold-72" x="309.423828"/>
     <use xlink:href="#DejaVuSerif-Bold-20" x="362.109375"/>
     <use xlink:href="#DejaVuSerif-Bold-50" x="396.923828"/>
     <use xlink:href="#DejaVuSerif-Bold-68" x="472.119141"/>
     <use xlink:href="#DejaVuSerif-Bold-61" x="544.824219"/>
     <use xlink:href="#DejaVuSerif-Bold-73" x="609.619141"/>
     <use xlink:href="#DejaVuSerif-Bold-65" x="665.917969"/>
     <use xlink:href="#DejaVuSerif-Bold-20" x="729.541016"/>
     <use xlink:href="#DejaVuSerif-Bold-45" x="764.355469"/>
     <use xlink:href="#DejaVuSerif-Bold-76" x="840.576172"/>
     <use xlink:href="#DejaVuSerif-Bold-6f" x="898.681641"/>
     <use xlink:href="#DejaVuSerif-Bold-6c" x="965.380859"/>
     <use xlink:href="#DejaVuSerif-Bold-75" x="1003.369141"/>
     <use xlink:href="#DejaVuSerif-Bold-74" x="1076.074219"/>
     <use xlink:href="#DejaVuSerif-Bold-69" x="1122.265625"/>
     <use xlink:href="#DejaVuSerif-Bold-6f" x="1160.253906"/>
     <use xlink:href="#DejaVuSerif-Bold-6e" x="1226.953125"/>
     <use xlink:href="#DejaVuSerif-Bold-20" x="1299.658203"/>
     <use xlink:href="#DejaVuSerif-Bold-45" x="1334.472656"/>
     <use xlink:href="#DejaVuSerif-Bold-6e" x="1410.693359"/>
     <use xlink:href="#DejaVuSerif-Bold-63" x="1483.398438"/>
     <use xlink:href="#DejaVuSerif-Bold-6f" x="1544.287109"/>
     <use xlink:href="#DejaVuSerif-Bold-64" x="1610.986328"/>
     <use xlink:href="#DejaVuSerif-Bold-65" x="1680.908203"/>
     <use xlink:href="#DejaVuSerif-Bold-73" x="1744.53125"/>
     <use xlink:href="#DejaVuSerif-Bold-20" x="1800.830078"/>
     <use xlink:href="#DejaVuSerif-Bold-50" x="1835.644531"/>
     <use xlink:href="#DejaVuSerif-Bold-72" x="1910.839844"/>
     <use xlink:href="#DejaVuSerif-Bold-6f" x="1963.525391"/>
     <use xlink:href="#DejaVuSerif-Bold-70" x="2030.224609"/>
     <use xlink:href="#DejaVuSerif-Bold-61" x="2100.146484"/>
     <use xlink:href="#DejaVuSerif-Bold-67" x="2164.941406"/>
     <use xlink:href="#DejaVuSerif-Bold-61" x="2234.863281"/>
     <use xlink:href="#DejaVuSerif-Bold-74" x="2299.658203"/>
     <use xlink:href="#DejaVuSerif-Bold-69" x="2345.849609"/>
     <use xlink:href="#DejaVuSerif-Bold-6f" x="2383.837891"/>
     <use xlink:href="#DejaVuSerif-Bold-6e" x="2450.537109"/>
     <use xlink:href="#DejaVuSerif-Bold-20" x="2523.242188"/>
     <use xlink:href="#DejaVuSerif-Bold-44" x="2558.056641"/>
     <use xlink:href="#DejaVuSerif-Bold-65" x="2644.775391"/>
     <use xlink:href="#DejaVuSerif-Bold-6c" x="2708.398438"/>
     <use xlink:href="#DejaVuSerif-Bold-61" x="2746.386719"/>
     <use xlink:href="#DejaVuSerif-Bold-79" x="2811.181641"/>
     <use xlink:href="#DejaVuSerif-Bold-20" x="2869.287109"/>
     <use xlink:href="#DejaVuSerif-Bold-3c4" x="2904.101562"/>
    </g>
   </g>
  </g>
  <g id="text_37">
   <!-- Chronometric Interferometry: Beat Phase Encodes Timing -->
   <g transform="translate(125.944375 17.837812) scale(0.14 -0.14)">
    <defs>
     <path id="DejaVuSerif-Bold-43" d="M 4769 1331 
Q 4584 609 4106 259 
Q 3628 -91 2822 -91 
Q 1641 -91 955 561 
Q 269 1213 269 2328 
Q 269 3447 955 4098 
Q 1641 4750 2822 4750 
Q 3238 4750 3688 4650 
Q 4138 4550 4641 4347 
L 4641 3200 
L 4244 3200 
Q 4122 3788 3800 4080 
Q 3478 4372 2950 4372 
Q 2269 4372 1937 3870 
Q 1606 3369 1606 2328 
Q 1606 1288 1937 788 
Q 2269 288 2956 288 
Q 3422 288 3717 547 
Q 4013 806 4147 1331 
L 4769 1331 
z
" transform="scale(0.015625)"/>
     <path id="DejaVuSerif-Bold-6d" d="M 3884 2778 
Q 4116 3109 4384 3261 
Q 4653 3413 5013 3413 
Q 5584 3413 5867 3089 
Q 6150 2766 6150 2113 
L 6150 378 
L 6625 378 
L 6625 0 
L 4647 0 
L 4647 378 
L 5044 378 
L 5044 1947 
Q 5044 2569 4948 2731 
Q 4853 2894 4594 2894 
Q 4300 2894 4137 2667 
Q 3975 2441 3975 2022 
L 3975 378 
L 4372 378 
L 4372 0 
L 2472 0 
L 2472 378 
L 2869 378 
L 2869 1947 
Q 2869 2569 2772 2731 
Q 2675 2894 2419 2894 
Q 2122 2894 1959 2667 
Q 1797 2441 1797 2022 
L 1797 378 
L 2194 378 
L 2194 0 
L 219 0 
L 219 378 
L 691 378 
L 691 2944 
L 219 2944 
L 219 3322 
L 1797 3322 
L 1797 2853 
Q 1991 3144 2241 3278 
Q 2491 3413 2834 3413 
Q 3241 3413 3494 3258 
Q 3747 3103 3884 2778 
z
" transform="scale(0.015625)"/>
     <path id="DejaVuSerif-Bold-49" d="M 300 0 
L 300 378 
L 897 378 
L 897 4288 
L 300 4288 
L 300 4666 
L 2700 4666 
L 2700 4288 
L 2100 4288 
L 2100 378 
L 2700 378 
L 2700 0 
L 300 0 
z
" transform="scale(0.015625)"/>
     <path id="DejaVuSerif-Bold-3a" d="M 588 2541 
Q 588 2788 761 2963 
Q 934 3138 1178 3138 
Q 1422 3138 1597 2961 
Q 1772 2784 1772 2541 
Q 1772 2297 1598 2125 
Q 1425 1953 1178 1953 
Q 931 1953 759 2125 
Q 588 2297 588 2541 
z
M 588 506 
Q 588 750 761 925 
Q 934 1100 1178 1100 
Q 1422 1100 1597 925 
Q 1772 750 1772 506 
Q 1772 259 1597 84 
Q 1422 -91 1178 -91 
Q 934 -91 761 84 
Q 588 259 588 506 
z
" transform="scale(0.015625)"/>
     <path id="DejaVuSerif-Bold-54" d="M 1159 0 
L 1159 378 
L 1778 378 
L 1778 4238 
L 500 4238 
L 500 3500 
L 72 3500 
L 72 4666 
L 4697 4666 
L 4697 3500 
L 4275 3500 
L 4275 4238 
L 2988 4238 
L 2988 378 
L 3609 378 
L 3609 0 
L 1159 0 
z
" transform="scale(0.015625)"/>
    </defs>
    <use xlink:href="#DejaVuSerif-Bold-43"/>
    <use xlink:href="#DejaVuSerif-Bold-68" x="79.589844"/>
    <use xlink:href="#DejaVuSerif-Bold-72" x="152.294922"/>
    <use xlink:href="#DejaVuSerif-Bold-6f" x="204.980469"/>
    <use xlink:href="#DejaVuSerif-Bold-6e" x="271.679688"/>
    <use xlink:href="#DejaVuSerif-Bold-6f" x="344.384766"/>
    <use xlink:href="#DejaVuSerif-Bold-6d" x="411.083984"/>
    <use xlink:href="#DejaVuSerif-Bold-65" x="516.894531"/>
    <use xlink:href="#DejaVuSerif-Bold-74" x="580.517578"/>
    <use xlink:href="#DejaVuSerif-Bold-72" x="626.708984"/>
    <use xlink:href="#DejaVuSerif-Bold-69" x="679.394531"/>
    <use xlink:href="#DejaVuSerif-Bold-63" x="717.382812"/>
    <use xlink:href="#DejaVuSerif-Bold-20" x="778.271484"/>
    <use xlink:href="#DejaVuSerif-Bold-49" x="813.085938"/>
    <use xlink:href="#DejaVuSerif-Bold-6e" x="859.863281"/>
    <use xlink:href="#DejaVuSerif-Bold-74" x="932.568359"/>
    <use xlink:href="#DejaVuSerif-Bold-65" x="978.759766"/>
    <use xlink:href="#DejaVuSerif-Bold-72" x="1042.382812"/>
    <use xlink:href="#DejaVuSerif-Bold-66" x="1095.068359"/>
    <use xlink:href="#DejaVuSerif-Bold-65" x="1138.085938"/>
    <use xlink:href="#DejaVuSerif-Bold-72" x="1201.708984"/>
    <use xlink:href="#DejaVuSerif-Bold-6f" x="1254.394531"/>
    <use xlink:href="#DejaVuSerif-Bold-6d" x="1321.09375"/>
    <use xlink:href="#DejaVuSerif-Bold-65" x="1426.904297"/>
    <use xlink:href="#DejaVuSerif-Bold-74" x="1490.527344"/>
    <use xlink:href="#DejaVuSerif-Bold-72" x="1536.71875"/>
    <use xlink:href="#DejaVuSerif-Bold-79" x="1589.404297"/>
    <use xlink:href="#DejaVuSerif-Bold-3a" x="1647.509766"/>
    <use xlink:href="#DejaVuSerif-Bold-20" x="1684.423828"/>
    <use xlink:href="#DejaVuSerif-Bold-42" x="1719.238281"/>
    <use xlink:href="#DejaVuSerif-Bold-65" x="1803.759766"/>
    <use xlink:href="#DejaVuSerif-Bold-61" x="1867.382812"/>
    <use xlink:href="#DejaVuSerif-Bold-74" x="1932.177734"/>
    <use xlink:href="#DejaVuSerif-Bold-20" x="1978.369141"/>
    <use xlink:href="#DejaVuSerif-Bold-50" x="2013.183594"/>
    <use xlink:href="#DejaVuSerif-Bold-68" x="2088.378906"/>
    <use xlink:href="#DejaVuSerif-Bold-61" x="2161.083984"/>
    <use xlink:href="#DejaVuSerif-Bold-73" x="2225.878906"/>
    <use xlink:href="#DejaVuSerif-Bold-65" x="2282.177734"/>
    <use xlink:href="#DejaVuSerif-Bold-20" x="2345.800781"/>
    <use xlink:href="#DejaVuSerif-Bold-45" x="2380.615234"/>
    <use xlink:href="#DejaVuSerif-Bold-6e" x="2456.835938"/>
    <use xlink:href="#DejaVuSerif-Bold-63" x="2529.541016"/>
    <use xlink:href="#DejaVuSerif-Bold-6f" x="2590.429688"/>
    <use xlink:href="#DejaVuSerif-Bold-64" x="2657.128906"/>
    <use xlink:href="#DejaVuSerif-Bold-65" x="2727.050781"/>
    <use xlink:href="#DejaVuSerif-Bold-73" x="2790.673828"/>
    <use xlink:href="#DejaVuSerif-Bold-20" x="2846.972656"/>
    <use xlink:href="#DejaVuSerif-Bold-54" x="2881.787109"/>
    <use xlink:href="#DejaVuSerif-Bold-69" x="2956.201172"/>
    <use xlink:href="#DejaVuSerif-Bold-6d" x="2994.189453"/>
    <use xlink:href="#DejaVuSerif-Bold-69" x="3100"/>
    <use xlink:href="#DejaVuSerif-Bold-6e" x="3137.988281"/>
    <use xlink:href="#DejaVuSerif-Bold-67" x="3210.693359"/>
   </g>
  </g>
 </g>
 <defs>
  <clipPath id="p8750d10852">
   <rect x="63.694219" y="72.06" width="636.505" height="207.67375"/>
  </clipPath>
  <clipPath id="p536fcffd69">
   <rect x="63.694219" y="341.25" width="636.505" height="207.67375"/>
  </clipPath>
 </defs>
</svg>
