<?xml version="1.0" encoding="UTF-8" standalone="no"?>
<svg xmlns="http://www.w3.org/2000/svg" width="900" height="420" viewBox="0 0 900 420">
  <defs>
    <style type="text/css"><![CDATA[
      .box{fill:#ffffff;stroke:#000000;stroke-width:2}
      .line{stroke:#000000;stroke-width:2;fill:none}
      .arrow{stroke:#000000;stroke-width:2;fill:#000000}
      .label{font-family:Arial, Helvetica, sans-serif;font-size:16px;fill:#000000}
      .num{font-family:Arial, Helvetica, sans-serif;font-size:16px;font-weight:bold;fill:#000000}
      .title{font-family:Arial, Helvetica, sans-serif;font-size:18px;font-weight:bold;fill:#000000}
    ]]></style>
  </defs>
  <text x="20" y="30" class="title">Fig. 5 — Node/system block diagram</text>

  <rect x="40" y="120" width="170" height="70" class="box"/>
  <text x="125" y="155" class="num">(400)</text>

  <rect x="230" y="120" width="150" height="70" class="box"/>
  <text x="305" y="155" class="num">(410)</text>

  <rect x="400" y="120" width="170" height="70" class="box"/>
  <text x="485" y="155" class="num">(420)</text>

  <rect x="590" y="120" width="140" height="70" class="box"/>
  <text x="660" y="155" class="num">(430)</text>

  <rect x="750" y="120" width="120" height="70" class="box"/>
  <text x="810" y="155" class="num">(440)</text>

  <rect x="590" y="240" width="280" height="70" class="box"/>
  <text x="730" y="275" class="num">(450)</text>

  <rect x="400" y="240" width="160" height="70" class="box"/>
  <text x="480" y="275" class="num">(460)</text>

  <!-- Flow arrows -->
  <line x1="210" y1="155" x2="230" y2="155" class="line"/>
  <polygon points="230,155 220,150 220,160" class="arrow"/>
  <line x1="380" y1="155" x2="400" y2="155" class="line"/>
  <polygon points="400,155 390,150 390,160" class="arrow"/>
  <line x1="570" y1="155" x2="590" y2="155" class="line"/>
  <polygon points="590,155 580,150 580,160" class="arrow"/>
  <line x1="730" y1="155" x2="750" y2="155" class="line"/>
  <polygon points="750,155 740,150 740,160" class="arrow"/>
  <!-- Down to MAC and Consensus -->
  <line x1="650" y1="190" x2="650" y2="240" class="line"/>
  <polygon points="650,240 645,230 655,230" class="arrow"/>
  <line x1="810" y1="190" x2="810" y2="240" class="line"/>
  <polygon points="810,240 805,230 815,230" class="arrow"/>

</svg>

